<?xml version="1.0" encoding="UTF-8"?>
<!DOCTYPE svg PUBLIC "-//W3C//DTD SVG 1.1//EN" "http://www.w3.org/Graphics/SVG/1.1/DTD/svg11.dtd">
<!-- Creator: CorelDRAW X7 -->
<svg xmlns="http://www.w3.org/2000/svg" xml:space="preserve" width="7200px" height="4800px" version="1.1" shape-rendering="geometricPrecision" text-rendering="geometricPrecision" image-rendering="optimizeQuality" fill-rule="evenodd" clip-rule="evenodd"
viewBox="0 0 72000 48000"
 xmlns:xlink="http://www.w3.org/1999/xlink">
 <g id="Layer_x0020_1">
  <metadata id="CorelCorpID_0Corel-Layer"/>
  <path fill="#FA9D3C" d="M30981 19962c104,86 103,78 106,236 -99,7 -38,32 -145,-9 -75,-29 -34,-26 -73,-70 -725,-328 -500,-1479 312,-1544 1029,-81 1079,1318 559,1442 -285,-259 147,-287 44,-752 -120,-539 -980,-568 -1073,46 -56,369 227,435 270,651zm482 -39c190,639 1187,454 1060,-276 -57,-326 -327,-250 -333,-675 225,33 379,202 465,322 169,237 125,346 145,677 84,-54 324,-328 391,-435 124,-198 181,-383 195,-625 36,-606 -259,-893 -525,-1166l-1684 -1659c-119,54 -522,469 -598,572 155,230 295,520 289,824 -7,303 -154,585 -321,754 -702,707 -1436,92 -1583,31l-503 513c135,164 270,279 424,430 193,189 364,334 405,496 -1123,361 -549,1911 482,1569 342,-114 371,-310 539,-559 255,56 592,625 909,808 122,-80 836,-770 922,-935 -459,-6 -745,-124 -906,-481 -167,-372 -48,-880 311,-961 133,434 -222,310 -84,776z"/>
  <path fill="#C58C3B" d="M30138 21448c-271,163 -392,305 -824,279 -562,-35 -1037,-508 -1052,-1084 -11,-457 132,-505 277,-781 -52,-105 -377,-458 -541,-530 -133,146 -653,730 -804,771 -158,-305 -203,-471 -562,-588 -607,-198 -1260,408 -1018,1065 134,365 259,312 567,538 -97,190 -680,697 -846,909 49,108 312,367 430,465 37,-26 20,-9 64,-55 317,-332 365,-34 499,14l631 -6 494 -688 693 -11c84,-86 127,-170 296,-146 133,19 220,134 198,297 -60,437 -537,47 -537,47l-566 -1 -329 507 1674 0c201,-154 264,-262 512,-32 29,194 -9,340 -178,374 -185,37 -239,-78 -334,-154l-1431 3c28,119 238,411 308,507l604 1c124,-106 142,-181 389,-139 136,134 141,122 116,355 -155,313 -504,-25 -505,-26l-705 -1c-117,-243 -319,-464 -467,-700l-867 -1 -206 213 1012 1016c396,338 983,502 1557,173 279,-161 1737,-1640 2039,-1968 -43,-151 -272,-321 -418,-473 -29,-31 -58,-68 -84,-91 -62,-56 -9,-13 -86,-59z"/>
  <path fill="#01C23D" d="M29050 14433l160 142c579,736 -85,1250 -123,1332 -137,290 149,527 -213,694 -493,228 -139,226 -568,22 -128,-61 -120,-30 -232,-103 -29,-184 3,-350 -18,-511 -33,-241 -548,-469 -340,-1120 183,-574 738,-710 1334,-456zm-1636 801c-126,57 -358,46 -487,6l2 -147c19,-16 643,-159 485,141zm243 -1118c119,120 164,83 127,276 -209,38 -495,-274 -383,-383 104,-100 199,51 256,107zm2027 952l451 -14c-102,-164 -222,-251 -347,-384 -51,-54 -139,-153 -193,-197 -129,-105 -75,-53 -275,-69 -45,-326 -67,-267 -250,-445 -137,-134 -224,-241 -404,-292 -12,285 72,375 -183,400 -60,-171 -37,-316 -36,-524 -1031,-209 -1344,357 -1796,797l-1315 1331 602 582c231,-132 366,-294 779,-289 331,4 575,151 760,325 498,471 400,1039 64,1538 59,140 380,465 519,525 160,-139 638,-700 822,-743 160,301 233,459 550,571 631,222 1285,-422 1017,-1094 -139,-349 -340,-325 -562,-514 96,-225 691,-654 853,-910l-472 -494c-11,5 -25,13 -32,17l-87 51c-140,64 -296,44 -483,17l18 -185z"/>
  <path fill="#0588D1" d="M24820 17307c187,-178 501,-208 565,90 79,366 -212,359 -481,391l-521 516c24,300 38,217 -9,532 145,122 418,378 508,524 283,-20 329,-14 493,127 234,-138 366,-360 781,-401 385,-39 617,83 879,295l508 -515c-123,-277 -553,-514 -757,-822l57 -48c125,-87 388,-145 519,-521 214,-611 -358,-1261 -1040,-1045 -357,114 -377,308 -569,592l-898 -866c-121,62 -1816,1723 -1990,2061 9,6 22,13 28,15l95 37c394,156 -31,217 568,212 388,-435 102,-309 737,-305 589,-612 499,-408 527,-869z"/>
  <path fill="#0588D1" d="M22686 18804c5,431 119,688 348,931l584 628c216,217 1049,1107 1244,1196l568 -571c-76,-293 -317,-277 -261,-996 -191,-100 -79,32 -360,-175 -2,-462 89,-255 -506,-874 -673,27 -385,98 -747,-298l-303 2c-232,206 -170,281 -567,157z"/>
  <path fill="#FEFEFE" d="M28824 16382c-172,10 -418,32 -557,-27l6 -130c129,-69 379,-43 564,-31l-13 188zm-461 -408c-118,-49 -66,-91 -306,-352 -364,-398 -133,-1105 481,-1119 600,-14 887,677 535,1089 -280,329 -248,378 -260,349 -2,-7 -10,19 -17,30l-433 3zm847 -1399c-114,-68 -74,-34 -160,-142 -596,-254 -1151,-118 -1334,456 -208,651 307,879 340,1120 21,161 -11,327 18,511 112,73 104,42 232,103 429,204 75,206 568,-22 362,-167 76,-404 213,-694 38,-82 702,-596 123,-1332z"/>
  <path fill="#01C23D" d="M28710 14966c114,83 109,-6 242,90 -52,114 -53,97 -161,166l14 314c-156,-36 -149,-88 -265,-81 -132,7 -60,63 -253,71 -2,-525 3,-157 -138,-470 150,-108 126,-2 251,-96 58,-44 62,-113 136,-198 164,84 46,110 174,204zm-347 1008l433 -3c7,-11 15,-37 17,-30 12,29 -20,-20 260,-349 352,-412 65,-1103 -535,-1089 -614,14 -845,721 -481,1119 240,261 188,303 306,352z"/>
  <path fill="#FEFEFE" d="M30869 20119l153 15 -41 -172c-43,-216 -326,-282 -270,-651 93,-614 953,-585 1073,-46 103,465 -329,493 -44,752 520,-124 470,-1523 -559,-1442 -812,65 -1037,1216 -312,1544z"/>
  <path fill="#FEFEFE" d="M28149 15056c141,313 136,-55 138,470 193,-8 121,-64 253,-71 116,-7 109,45 265,81l-14 -314c108,-69 109,-52 161,-166 -133,-96 -128,-7 -242,-90 -128,-94 -10,-120 -174,-204 -74,85 -78,154 -136,198 -125,94 -101,-12 -251,96z"/>
  <path fill="#01C23D" d="M28273 16225l-6 130c139,59 385,37 557,27l13 -188c-185,-12 -435,-38 -564,31z"/>
  <path fill="#FEFEFE" d="M27784 14392c37,-193 -8,-156 -127,-276 -57,-56 -152,-207 -256,-107 -112,109 174,421 383,383z"/>
  <path fill="#FEFEFE" d="M26929 15093l-2 147c129,40 361,51 487,-6 158,-300 -466,-157 -485,-141z"/>
  <path fill="#F7C795" d="M30869 20119c39,44 -2,41 73,70 107,41 46,16 145,9 -3,-158 -2,-150 -106,-236l41 172 -153 -15z"/>
  <path fill="#90D7A6" d="M29210 14575l-160 -142c86,108 46,74 160,142z"/>
  <rect fill="none" stroke="#2B2A29" stroke-width="23.622" x="22406" y="6215" width="12949" height="5731"/>
  <rect fill="none" stroke="#2B2A29" stroke-width="472.441" x="39600" y="9293" width="12524" height="7005" rx="1804" ry="1804"/>
  <rect fill="#00A0E3" stroke="#2B2A29" stroke-width="23.622" x="18691" y="27284" width="25048" height="7217"/>
 </g>
</svg>
