<?xml version="1.0" encoding="UTF-8"?>
<!DOCTYPE svg PUBLIC "-//W3C//DTD SVG 1.1//EN" "http://www.w3.org/Graphics/SVG/1.1/DTD/svg11.dtd">
<!-- Creator: CorelDRAW X7 -->
<svg xmlns="http://www.w3.org/2000/svg" xml:space="preserve" width="609.6mm" height="406.4mm" version="1.1" style="shape-rendering:geometricPrecision; text-rendering:geometricPrecision; image-rendering:optimizeQuality; fill-rule:evenodd; clip-rule:evenodd"
viewBox="0 0 60960 40640"
 xmlns:xlink="http://www.w3.org/1999/xlink">
 <defs>
  <style type="text/css">
   <![CDATA[
    .str1 {stroke:#2B2A29;stroke-width:400}
    .str0 {stroke:#2B2A29;stroke-width:20}
    .fil7 {fill:none}
    .fil8 {fill:#00A0E3}
    .fil2 {fill:#01C23D}
    .fil3 {fill:#0588D1}
    .fil6 {fill:#90D7A6}
    .fil1 {fill:#C58C3B}
    .fil5 {fill:#F7C795}
    .fil0 {fill:#FA9D3C}
    .fil4 {fill:#FEFEFE}
   ]]>
  </style>
 </defs>
 <g id="Layer_x0020_1">
  <metadata id="CorelCorpID_0Corel-Layer"/>
  <path class="fil0" d="M26231 16901c87,73 86,67 89,200 -83,6 -32,27 -123,-8 -63,-24 -28,-22 -61,-59 -614,-278 -424,-1252 264,-1307 871,-69 913,1116 473,1221 -241,-220 125,-243 37,-637 -101,-456 -829,-481 -908,39 -48,312 192,368 229,551zm408 -33c160,541 1004,385 897,-234 -48,-275 -276,-212 -282,-571 190,28 321,171 394,273 143,201 106,293 122,573 72,-46 275,-278 332,-369 104,-167 153,-324 165,-528 31,-514 -220,-757 -445,-988l-1425 -1405c-101,46 -443,398 -507,485 131,194 250,440 245,697 -6,257 -130,496 -272,639 -594,599 -1216,78 -1340,26l-426 434c114,140 228,236 359,365 163,160 308,283 343,419 -951,306 -465,1618 408,1329 290,-97 314,-263 456,-474 216,48 501,529 770,684 103,-67 708,-651 781,-791 -389,-5 -631,-105 -767,-407 -142,-315 -41,-745 263,-814 112,367 -188,262 -71,657z"/>
  <path class="fil1" d="M25517 18159c-230,138 -332,259 -698,236 -476,-29 -878,-429 -890,-918 -10,-386 112,-427 234,-660 -44,-89 -319,-388 -458,-449 -113,123 -552,618 -681,652 -134,-258 -171,-398 -475,-497 -514,-168 -1068,345 -862,902 113,308 219,264 479,455 -82,161 -575,590 -715,770 41,91 263,310 363,393 32,-22 17,-8 54,-46 269,-282 310,-29 423,11l534 -4 419 -583 586 -9c72,-74 108,-144 251,-124 112,16 186,114 167,251 -50,370 -454,40 -454,40l-479 -1 -279 429 1418 1c169,-131 223,-223 433,-28 24,165 -8,289 -150,317 -158,31 -203,-66 -283,-131l-1212 3c23,101 202,348 261,430l511 0c105,-90 121,-153 330,-117 114,113 119,103 98,300 -132,265 -427,-21 -428,-21l-597 -2c-99,-205 -270,-393 -396,-593l-734 0 -174 180 857 860c335,286 833,426 1318,147 237,-136 1471,-1388 1727,-1667 -37,-127 -230,-271 -354,-400 -25,-26 -49,-57 -71,-77 -52,-47 -8,-10 -73,-50z"/>
  <path class="fil2" d="M24596 12220l135 120c490,624 -71,1059 -104,1128 -116,245 126,446 -180,588 -418,193 -118,191 -481,18 -109,-51 -102,-25 -196,-87 -26,-155 2,-297 -16,-433 -28,-204 -464,-397 -288,-948 155,-486 625,-601 1130,-386zm-1386 678c-106,49 -303,39 -412,5l2 -124c16,-14 544,-135 410,119zm206 -946c101,101 139,70 108,233 -177,33 -419,-231 -324,-324 87,-85 168,43 216,91zm1716 805l382 -11c-86,-139 -188,-213 -294,-325 -43,-46 -117,-130 -163,-167 -109,-89 -63,-45 -233,-59 -38,-276 -56,-226 -211,-377 -117,-113 -190,-203 -343,-247 -10,242 62,318 -154,339 -51,-145 -32,-267 -31,-443 -873,-178 -1138,302 -1521,674l-1113 1127 510 493c195,-112 310,-249 659,-245 281,3 488,128 644,276 421,398 339,879 54,1302 50,118 322,393 439,444 136,-118 541,-593 697,-629 135,255 196,389 465,483 535,188 1088,-357 861,-926 -118,-295 -288,-275 -476,-435 82,-191 586,-554 722,-770l-399 -418c-10,4 -21,10 -27,13l-74 44c-118,54 -251,37 -409,14l15 -157z"/>
  <path class="fil3" d="M21014 14653c159,-150 424,-176 479,76 67,311 -180,305 -407,331l-442 437c21,254 32,184 -7,451 122,103 354,320 430,444 239,-18 278,-12 417,107 198,-117 310,-305 661,-340 327,-33 523,71 744,250l431 -435c-104,-235 -468,-436 -641,-697l48 -41c106,-73 328,-122 440,-440 180,-518 -304,-1068 -881,-885 -302,96 -320,260 -482,501l-760 -733c-102,52 -1538,1459 -1685,1745 8,5 18,10 24,13l80 31c334,132 -26,183 481,180 328,-369 87,-263 624,-259 499,-518 422,-345 446,-736z"/>
  <path class="fil3" d="M19207 15921c5,364 101,582 295,788l495 532c182,183 888,937 1053,1012l481 -483c-64,-248 -269,-235 -221,-843 -162,-85 -67,27 -305,-149 -2,-391 75,-216 -428,-740 -570,24 -327,83 -633,-252l-256 2c-197,175 -144,238 -481,133z"/>
  <path class="fil4" d="M24405 13870c-146,9 -355,27 -472,-23l5 -110c109,-58 321,-36 477,-26l-10 159zm-391 -346c-100,-41 -56,-76 -259,-298 -308,-336 -113,-935 407,-947 509,-11 751,573 453,922 -237,279 -210,320 -220,295 -2,-5 -9,17 -15,26l-366 2zm717 -1184c-97,-58 -63,-29 -135,-120 -505,-215 -975,-100 -1130,386 -176,551 260,744 288,948 18,136 -10,278 16,433 94,62 87,36 196,87 363,173 63,175 481,-18 306,-142 64,-343 180,-588 33,-69 594,-504 104,-1128z"/>
  <path class="fil2" d="M24308 12671c96,70 92,-5 205,77 -44,96 -45,82 -137,140l12 266c-131,-30 -126,-74 -224,-69 -112,6 -51,53 -214,60 -2,-444 2,-133 -117,-397 127,-92 106,-2 212,-82 50,-38 53,-96 115,-167 140,70 39,93 148,172zm-294 853l366 -2c6,-9 13,-31 15,-26 10,25 -17,-16 220,-295 298,-349 56,-933 -453,-922 -520,12 -715,611 -407,947 203,222 159,257 259,298z"/>
  <path class="fil4" d="M26136 17034l129 13 -34 -146c-37,-183 -277,-239 -229,-551 79,-520 807,-495 908,-39 88,394 -278,417 -37,637 440,-105 398,-1290 -473,-1221 -688,55 -878,1029 -264,1307z"/>
  <path class="fil4" d="M23833 12748c119,264 115,-47 117,397 163,-7 102,-54 214,-60 98,-5 93,39 224,69l-12 -266c92,-58 93,-44 137,-140 -113,-82 -109,-7 -205,-77 -109,-79 -8,-102 -148,-172 -62,71 -65,129 -115,167 -106,80 -85,-10 -212,82z"/>
  <path class="fil2" d="M23938 13737l-5 110c117,50 326,32 472,23l10 -159c-156,-10 -368,-32 -477,26z"/>
  <path class="fil4" d="M23524 12185c31,-163 -7,-132 -108,-233 -48,-48 -129,-176 -216,-91 -95,93 147,357 324,324z"/>
  <path class="fil4" d="M22800 12779l-2 124c109,34 306,44 412,-5 134,-254 -394,-133 -410,-119z"/>
  <path class="fil5" d="M26136 17034c33,37 -2,35 61,59 91,35 40,14 123,8 -3,-133 -2,-127 -89,-200l34 146 -129 -13z"/>
  <path class="fil6" d="M24731 12340l-135 -120c72,91 38,62 135,120z"/>
  <rect class="fil7 str0" x="18971" y="5262" width="10963" height="4853"/>
  <rect class="fil7 str1" x="33528" y="7868" width="10604" height="5931" rx="1528" ry="1528"/>
  <rect class="fil8 str0" x="15825" y="23100" width="21208" height="6111"/>
 </g>
</svg>
