<?xml version="1.0" encoding="UTF-8"?>
<!DOCTYPE svg PUBLIC "-//W3C//DTD SVG 1.1//EN" "http://www.w3.org/Graphics/SVG/1.1/DTD/svg11.dtd">
<!-- Creator: CorelDRAW X7 -->
<svg xmlns="http://www.w3.org/2000/svg" xml:space="preserve" width="451.894mm" height="246.612mm" version="1.1" style="shape-rendering:geometricPrecision; text-rendering:geometricPrecision; image-rendering:optimizeQuality; fill-rule:evenodd; clip-rule:evenodd"
viewBox="0 0 45202 24668"
 xmlns:xlink="http://www.w3.org/1999/xlink">
 <defs>
  <style type="text/css">
   <![CDATA[
    .str0 {stroke:#1B1918;stroke-width:300.082}
    .fil2 {fill:none}
    .fil0 {fill:#1B1918}
    .fil1 {fill:white}
   ]]>
  </style>
 </defs>
 <g id="Layer_x0020_1">
  <metadata id="CorelCorpID_0Corel-Layer"/>
  <path class="fil0" d="M3054 3998l-93 704c-18,138 -32,249 -43,333 -9,84 -15,148 -15,194 0,43 4,75 12,98 8,22 20,40 37,52l126 106 4 192c-127,-7 -230,-11 -310,-11 -82,0 -177,4 -284,11l-6 -185 140 -120c33,-27 57,-73 73,-138 16,-64 34,-160 53,-291l652 -4566 141 -60 565 4577c22,176 41,294 59,356 18,61 43,105 77,133l128 109 4 185c-118,-7 -237,-11 -356,-11 -158,0 -312,4 -463,11l-6 -185 130 -109c17,-15 30,-33 38,-56 7,-23 11,-57 11,-102 0,-50 -4,-116 -13,-197 -8,-82 -21,-189 -38,-323l-86 -707 -537 0zm283 -2161c-16,130 -33,266 -51,406l-180 1362 438 0 -161 -1358c-17,-143 -32,-280 -46,-410l0 0zm1610 782c-5,785 -8,1450 -8,1994 0,254 14,430 41,526 27,97 79,145 156,145 59,0 124,-10 194,-29l10 223c-139,194 -268,292 -389,292 -123,0 -217,-73 -284,-221 -67,-146 -100,-367 -100,-664 0,-522 2,-1284 8,-2285l-177 -131 -12 -202 219 -56 124 -885c75,-37 142,-74 204,-109l18 27c-3,303 -4,625 -4,967l367 0 0 408 -367 0zm1516 -539c128,0 228,100 300,299 73,199 109,481 109,847l0 1319c0,313 1,546 3,696 1,68 12,110 34,128l158 131 4 177c-125,-7 -250,-11 -377,-11 -132,0 -250,4 -354,11l-6 -177 131 -113c20,-18 31,-55 33,-113 1,-37 1,-117 1,-236l0 -1577c0,-308 -21,-530 -63,-663 -42,-135 -104,-202 -187,-202 -73,0 -147,49 -224,145l0 1654c0,313 1,601 2,861 1,67 11,109 30,123l137 121 2 177c-108,-7 -226,-11 -354,-11 -130,0 -258,4 -384,11l-6 -177 169 -131c19,-15 29,-54 30,-113 0,-160 1,-314 1,-463l0 -3290c0,-328 -2,-630 -6,-906l-192 -150 -8 -154c219,-94 409,-192 572,-293l15 30c-6,346 -8,716 -8,1108l0 1321c148,-253 293,-379 438,-379l0 0zm2917 2465c0,313 1,546 3,696 1,68 12,110 34,128l159 131 3 177c-125,-7 -250,-11 -377,-11 -132,0 -247,4 -347,11l-6 -177 124 -113c21,-18 31,-55 33,-113 1,-37 1,-117 1,-236l0 -1577c0,-308 -19,-530 -59,-663 -39,-135 -98,-202 -177,-202 -72,0 -147,73 -227,220 12,123 18,259 18,409l0 1320c0,313 1,551 3,711 1,67 11,109 30,123l131 121 3 177c-103,-7 -219,-11 -345,-11 -132,0 -247,4 -347,11l-5 -177 123 -113c21,-18 31,-55 33,-113 1,-37 1,-117 1,-236l0 -1577c0,-308 -19,-530 -59,-663 -40,-135 -98,-202 -177,-202 -68,0 -138,60 -211,182l0 1617c0,313 0,601 2,861 1,67 11,109 30,124l131 120 3 177c-105,-7 -221,-11 -349,-11 -130,0 -258,4 -384,11l-6 -177 168 -132c20,-14 30,-53 30,-113 1,-161 2,-315 2,-462l0 -1239c0,-329 -2,-633 -6,-912l-187 -138 -7 -154c201,-85 385,-180 552,-285l19 30 0 406c144,-281 285,-421 424,-421 159,0 274,166 345,496 162,-330 320,-496 475,-496 123,0 220,100 290,299 71,199 106,482 106,847l0 1319zm1068 -547c-137,0 -235,50 -294,150 -58,100 -87,272 -87,516 0,220 20,378 62,472 42,93 91,141 147,141 65,0 121,-48 169,-141l3 -1138zm-641 -1555c186,-242 365,-363 537,-363 157,0 275,101 354,303 78,201 117,492 116,870l-7 1564c-2,129 -1,231 3,310 3,77 11,136 24,178 12,41 31,71 56,89 25,16 61,27 108,29l8 173c-122,121 -227,182 -316,182 -118,0 -196,-134 -234,-402 -111,268 -228,402 -352,402 -122,0 -222,-88 -300,-261 -79,-175 -118,-420 -118,-734 0,-395 63,-682 190,-865 127,-183 318,-274 572,-274l1 -284c1,-270 -21,-469 -67,-596 -46,-127 -118,-191 -215,-191 -89,0 -197,56 -323,169l-37 -299zm2542 646l0 1398c0,295 1,543 3,742 1,70 12,115 34,131l152 132 4 185c-109,-7 -236,-11 -383,-11 -151,0 -287,4 -408,11l-7 -185 176 -138c22,-21 34,-59 35,-117 2,-204 3,-453 3,-750l0 -2998c0,-251 -1,-459 -3,-625 -1,-65 -11,-107 -31,-124l-176 -147 -4 -192c122,10 256,15 403,15 151,0 280,-5 387,-15l8 192 -156 127c-22,18 -33,57 -34,117 -2,180 -3,392 -3,634l0 1217 783 0 0 -1217c0,-242 -1,-454 -2,-634 -1,-60 -12,-99 -34,-117l-154 -127 -4 -192c111,10 242,15 393,15 148,0 281,-5 400,-15l7 192 -179 146c-20,18 -31,60 -32,125 -2,166 -3,374 -3,625l0 2998c0,297 1,546 3,750 1,58 13,96 36,117l171 138 4 185c-126,-7 -263,-11 -414,-11 -148,0 -274,4 -379,11l-7 -185 158 -132c22,-17 33,-61 34,-131 1,-199 2,-447 2,-742l0 -1398 -783 0zm1954 796c0,457 24,827 72,1112 47,284 123,426 228,426 97,0 168,-126 214,-376 46,-250 68,-623 68,-1117 0,-464 -24,-828 -72,-1095 -48,-267 -124,-401 -227,-401 -95,0 -166,121 -213,361 -46,241 -70,605 -70,1090zm987 -29c0,571 -66,1034 -198,1389 -133,355 -305,532 -518,532 -206,0 -371,-166 -494,-502 -123,-335 -184,-772 -184,-1314 0,-550 64,-1000 193,-1352 129,-353 303,-529 523,-529 208,0 374,162 496,487 122,324 182,754 182,1289l0 0zm156 -3563c219,-94 409,-192 572,-293l14 30c-5,346 -8,715 -8,1106l0 3480c0,299 1,507 3,625 2,68 13,110 33,127l163 132 4 177c-129,-7 -257,-11 -385,-11 -131,0 -259,4 -385,11l-7 -177 166 -131c20,-15 31,-54 33,-113 2,-99 3,-262 3,-493l0 -3260c0,-328 -2,-630 -6,-906l-192 -150 -8 -154zm1472 526c0,173 -19,313 -58,421 -39,108 -90,162 -153,162 -57,0 -104,-51 -141,-153 -37,-101 -56,-233 -56,-396 0,-178 20,-319 59,-422 39,-102 90,-154 153,-154 57,0 104,48 141,142 37,93 55,227 55,400l0 0zm-576 1538c215,-94 404,-191 567,-293l14 30c-5,347 -8,715 -8,1105l0 1418c0,298 1,506 3,624 2,68 12,110 33,128l163 131 4 177c-129,-7 -257,-11 -385,-11 -131,0 -259,4 -385,11l-7 -177 166 -131c20,-15 31,-52 33,-113 2,-97 2,-262 2,-491l0 -1210c0,-327 -1,-629 -5,-905l-187 -139 -8 -154zm1683 149c-55,-37 -115,-56 -178,-56 -80,0 -145,39 -195,120 -51,80 -76,194 -76,342 0,113 11,200 33,260 22,62 59,120 113,173l210 209c125,123 216,272 274,447 57,173 86,377 86,611 0,368 -54,655 -161,859 -108,204 -250,306 -425,306 -147,0 -291,-86 -432,-259 29,-336 53,-662 73,-978l67 -30 93 819c54,53 120,79 201,79 75,0 137,-41 184,-125 47,-82 71,-198 71,-345 0,-122 -15,-226 -43,-310 -28,-84 -85,-167 -169,-250l-160 -158c-102,-103 -178,-236 -230,-400 -51,-165 -77,-366 -77,-604 0,-366 50,-647 151,-842 100,-197 238,-294 415,-294 145,0 276,61 393,185 -27,327 -49,639 -67,932l-72 31 -79 -722zm963 113c-5,785 -8,1450 -8,1994 0,254 14,430 41,526 27,97 79,145 156,145 59,0 124,-10 194,-29l10 223c-139,194 -268,292 -389,292 -122,0 -217,-73 -284,-221 -67,-146 -100,-367 -100,-664 0,-522 2,-1284 8,-2285l-177 -131 -12 -202 219 -56 124 -885c75,-37 142,-74 204,-109l18 27c-3,303 -4,625 -4,967l367 0 0 408 -367 0zm1088 -1800c0,173 -19,313 -58,421 -39,108 -89,162 -152,162 -57,0 -105,-51 -142,-153 -37,-101 -55,-233 -55,-396 0,-178 19,-319 59,-422 39,-102 90,-154 153,-154 57,0 104,48 140,142 37,93 55,227 55,400l0 0zm-575 1538c215,-94 403,-191 566,-293l15 30c-6,347 -8,715 -8,1105l0 1418c0,298 1,506 2,624 2,68 13,110 33,128l164 131 4 177c-130,-7 -258,-11 -386,-11 -130,0 -258,4 -385,11l-7 -177 167 -131c20,-15 30,-52 32,-113 2,-97 3,-262 3,-491l0 -1210c0,-327 -2,-629 -5,-905l-188 -139 -7 -154zm2032 3067c-145,235 -294,354 -449,354 -191,0 -348,-160 -471,-478 -123,-318 -184,-743 -184,-1275 0,-579 67,-1049 201,-1407 133,-358 304,-538 512,-538 131,0 258,72 381,214 -31,353 -59,724 -83,1113l-72 35 -100 -940c-24,-24 -56,-37 -96,-37 -100,0 -181,125 -245,374 -64,249 -96,584 -96,1001 0,489 41,850 122,1081 80,233 195,348 345,348 71,0 146,-23 225,-69l10 224zm2497 -1797c14,135 26,268 35,402 14,-139 28,-268 43,-392l273 -2253c17,-149 29,-262 37,-341 7,-79 11,-143 11,-191 0,-42 -4,-74 -12,-97 -9,-22 -21,-40 -38,-53l-125 -101 -4 -200c126,10 229,15 308,15 84,0 178,-5 285,-15l6 192 -140 117c-33,30 -58,76 -75,139 -17,63 -34,160 -51,294l-564 4527 -143 33 -331 -2984c-17,-158 -35,-328 -54,-512 -21,181 -41,350 -60,508l-362 2955 -141 33 -511 -4515c-20,-174 -39,-291 -58,-352 -19,-62 -44,-107 -78,-138l-127 -105 -4 -192c118,10 237,15 357,15 157,0 310,-5 461,-15l7 192 -129 105c-18,16 -30,34 -38,57 -8,23 -12,56 -12,101 0,50 3,116 10,197 6,79 17,188 32,327l244 2246c13,136 25,269 35,403 14,-138 28,-269 42,-392l387 -3236 133 -34 351 3260zm1914 1799c-161,235 -332,351 -510,351 -214,0 -387,-151 -522,-453 -135,-301 -203,-748 -203,-1338 0,-561 65,-1019 194,-1373 130,-356 296,-533 496,-533 176,0 311,136 407,407 96,272 143,646 143,1125 0,71 -1,147 -4,224l-836 0c0,507 43,871 129,1093 86,222 227,332 423,332 95,0 186,-24 273,-72l10 237zm-393 -1952l0 -90c0,-342 -15,-586 -45,-735 -30,-148 -76,-222 -138,-222 -74,0 -133,102 -178,306 -44,206 -69,452 -76,741l437 0zm545 -3181c218,-94 409,-192 571,-293l15 30c-5,346 -8,715 -8,1106l0 3480c0,299 1,507 3,625 2,68 12,110 32,127l164 132 4 177c-129,-7 -257,-11 -385,-11 -131,0 -259,4 -386,11l-6 -177 166 -131c20,-15 31,-54 33,-113 1,-99 2,-262 2,-493l0 -3260c0,-328 -2,-630 -5,-906l-192 -150 -8 -154zm882 0c219,-94 409,-192 572,-293l15 30c-5,346 -8,715 -8,1106l0 3480c0,299 1,507 3,625 1,68 12,110 32,127l164 132 4 177c-129,-7 -258,-11 -385,-11 -131,0 -259,4 -386,11l-7 -177 167 -131c20,-15 31,-54 32,-113 2,-99 3,-262 3,-493l0 -3260c0,-328 -2,-630 -5,-906l-192 -150 -9 -154zm897 2057c201,-85 386,-180 553,-285l20 30 0 406c147,-281 293,-421 436,-421 128,0 228,100 300,299 72,199 109,482 109,847l0 1319c0,313 0,546 2,696 1,68 12,110 34,128l159 131 4 177c-125,-7 -251,-11 -378,-11 -131,0 -249,4 -354,11l-5 -177 131 -113c20,-18 31,-55 32,-113 1,-37 2,-117 2,-236l0 -1577c0,-308 -21,-530 -63,-663 -41,-135 -103,-202 -186,-202 -73,0 -147,60 -223,182l0 1617c0,313 1,601 2,861 1,67 11,109 30,124l137 120 2 177c-108,-7 -226,-11 -354,-11 -130,0 -258,4 -384,11l-6 -177 169 -132c19,-14 29,-53 30,-113 1,-161 1,-315 1,-462l0 -1239c0,-329 -2,-633 -5,-912l-188 -138 -7 -154zm2992 3076c-161,235 -331,351 -510,351 -213,0 -387,-151 -522,-453 -135,-301 -203,-748 -203,-1338 0,-561 65,-1019 195,-1373 129,-356 295,-533 495,-533 176,0 312,136 407,407 96,272 144,646 144,1125 0,71 -2,147 -4,224l-837 0c0,507 43,871 129,1093 86,222 227,332 423,332 96,0 186,-24 273,-72l10 237zm-393 -1952l0 -90c0,-342 -14,-586 -45,-735 -30,-148 -76,-222 -138,-222 -74,0 -133,102 -177,306 -45,206 -70,452 -77,741l437 0zm1352 -968c-55,-37 -115,-56 -178,-56 -80,0 -145,39 -195,120 -51,80 -76,194 -76,342 0,113 11,200 33,260 22,62 59,120 113,173l210 209c125,123 216,272 274,447 57,173 86,377 86,611 0,368 -54,655 -161,859 -108,204 -250,306 -425,306 -147,0 -291,-86 -432,-259 29,-336 53,-662 73,-978l67 -30 93 819c54,53 120,79 201,79 75,0 137,-41 184,-125 47,-82 71,-198 71,-345 0,-122 -15,-226 -43,-310 -28,-84 -85,-167 -169,-250l-160 -158c-102,-103 -178,-236 -230,-400 -51,-165 -77,-366 -77,-604 0,-366 50,-647 151,-842 100,-197 238,-294 415,-294 145,0 276,61 393,185 -27,327 -49,639 -67,932l-72 31 -79 -722zm1224 0c-55,-37 -114,-56 -178,-56 -80,0 -145,39 -195,120 -50,80 -75,194 -75,342 0,113 10,200 32,260 22,62 60,120 113,173l210 209c125,123 216,272 274,447 58,173 87,377 87,611 0,368 -54,655 -162,859 -108,204 -249,306 -425,306 -147,0 -291,-86 -432,-259 30,-336 54,-662 73,-978l67 -30 94 819c53,53 120,79 200,79 76,0 137,-41 184,-125 47,-82 71,-198 71,-345 0,-122 -14,-226 -43,-310 -28,-84 -85,-167 -169,-250l-160 -158c-101,-103 -178,-236 -229,-400 -52,-165 -78,-366 -78,-604 0,-366 50,-647 151,-842 101,-197 239,-294 415,-294 145,0 276,61 393,185 -26,327 -49,639 -67,932l-72 31 -79 -722zm1675 596c50,27 100,41 149,41 115,0 203,-101 263,-303 60,-202 90,-507 90,-915 0,-397 -29,-692 -85,-886 -58,-194 -148,-292 -270,-292 -49,0 -97,10 -147,30l0 2325zm0 1385c0,150 0,286 1,405 0,119 1,227 2,322 1,58 12,97 34,121l193 157 3 185c-135,-7 -276,-11 -423,-11 -152,0 -288,4 -408,11l-7 -185 176 -138c23,-21 34,-59 35,-117 1,-100 2,-213 2,-338 1,-123 1,-260 1,-412l0 -2998c0,-125 0,-240 -1,-342 0,-103 -1,-198 -2,-283 -1,-65 -11,-106 -31,-124l-176 -147 -4 -192c123,10 244,15 364,15 81,0 161,-5 239,-15 77,-11 148,-16 212,-16 236,0 414,117 536,352 122,235 182,583 182,1044 0,545 -63,968 -190,1271 -126,302 -305,453 -535,453 -62,0 -130,-14 -203,-41l0 1023zm969 -2322c114,7 234,11 361,11 120,0 236,-4 346,-11l7 177 -140 113c56,468 122,982 198,1539 20,148 41,311 62,489 22,-173 43,-336 65,-489 70,-504 138,-1018 206,-1539l-136 -113 -7 -177c64,7 143,11 238,11 79,0 157,-4 235,-11l6 177 -141 109c-22,20 -39,69 -51,146 -68,457 -148,1004 -241,1642 -92,638 -161,1125 -207,1461l-168 53c-48,-368 -117,-872 -208,-1508 -92,-637 -169,-1180 -233,-1628 -14,-89 -33,-144 -57,-170l-131 -105 -4 -177zm2018 454c-5,785 -8,1450 -8,1994 0,254 14,430 41,526 27,97 79,145 155,145 60,0 125,-10 194,-29l11 223c-139,194 -269,292 -389,292 -123,0 -217,-73 -284,-221 -67,-146 -101,-367 -101,-664 0,-522 3,-1284 8,-2285l-177 -131 -11 -202 218 -56 125 -885c75,-37 142,-74 203,-109l19 27c-3,303 -4,625 -4,967l367 0 0 408 -367 0zm1746 -1145l0 2975c0,276 1,549 3,820l512 0 179 -1067 80 -35 -33 1487 -9 27c-216,-8 -426,-11 -632,-11l-324 0c-130,0 -251,2 -361,7l-7 -185 163 -138c22,-18 33,-57 35,-117 1,-100 2,-213 2,-338 1,-123 1,-260 1,-412l0 -2998c0,-125 0,-240 -1,-342 0,-103 -1,-198 -2,-283 -1,-65 -11,-106 -31,-124l-163 -147 -4 -192c113,10 243,15 390,15 151,0 283,-5 395,-15l6 192 -162 139c-21,15 -32,52 -34,113 -1,91 -2,219 -2,386 -1,167 -1,248 -1,243l0 0zm1423 1145c-5,785 -8,1450 -8,1994 0,254 14,430 41,526 27,97 79,145 156,145 59,0 124,-10 194,-29l10 223c-139,194 -268,292 -389,292 -122,0 -217,-73 -284,-221 -67,-146 -100,-367 -100,-664 0,-522 2,-1284 8,-2285l-177 -131 -12 -202 219 -56 124 -885c75,-37 142,-74 204,-109l18 27c-3,303 -4,625 -4,967l367 0 0 408 -367 0zm1439 -74c-47,-48 -99,-72 -158,-72 -119,0 -211,118 -273,355 -63,238 -94,596 -94,1072 0,415 27,748 83,995 56,250 135,374 236,374 75,0 144,-47 206,-142l0 -2582zm-207 -2252c213,-94 404,-192 571,-293l15 30c-6,537 -9,1114 -9,1732l0 2046c0,329 1,668 2,1017 0,128 2,231 5,308 3,78 11,137 23,180 11,41 30,69 54,84 25,15 60,24 108,26l7 166c-127,126 -236,188 -326,188 -116,0 -193,-137 -230,-410 -114,273 -240,410 -379,410 -172,0 -309,-164 -409,-491 -100,-328 -150,-737 -150,-1229 0,-628 65,-1113 194,-1456 130,-343 311,-513 543,-513 58,0 120,14 188,41 0,-528 -2,-1039 -5,-1532l-192 -150 -10 -154z"/>
  <path class="fil0" d="M9827 14813c-80,0 -163,1 -248,4l-5 -61 125 -46c16,-6 25,-19 25,-38 1,-33 2,-70 2,-111 0,-40 0,-85 0,-135l0 -983c0,-42 0,-79 0,-113 0,-34 -1,-65 -2,-93 0,-21 -8,-35 -22,-40l-125 -48 -3 -64c87,4 171,5 250,5 67,0 131,-2 193,-6 61,-4 125,-6 191,-6 231,0 405,66 522,197 117,131 175,326 175,585 0,304 -65,541 -194,709 -129,168 -311,253 -546,253 -65,0 -122,-2 -172,-5 -50,-3 -106,-4 -166,-4zm178 -125c30,8 59,12 88,14 28,3 57,3 86,3 135,0 238,-63 308,-189 70,-126 105,-318 105,-576 0,-251 -33,-437 -100,-558 -67,-122 -173,-183 -317,-183 -54,0 -110,4 -170,10l0 1479zm2257 -302l54 -10 -18 433 -7 9c-122,-3 -254,-4 -398,-4 -131,0 -262,1 -393,4l-6 -151c52,-48 103,-92 152,-134 48,-43 90,-81 126,-114 39,-36 71,-69 96,-100 26,-31 46,-61 61,-90 15,-29 25,-58 31,-87 7,-28 10,-58 10,-89 0,-72 -21,-130 -61,-172 -41,-42 -92,-63 -154,-63 -62,0 -130,26 -202,78l-35 -99c116,-104 236,-156 358,-156 103,0 187,34 254,101 66,67 100,150 100,249 0,59 -10,112 -31,158 -20,45 -50,88 -91,131 -41,42 -92,86 -153,132 -62,45 -134,98 -216,158l1 7 453 -1 69 -190zm472 -159c0,165 18,289 52,375 34,86 84,129 150,129 68,0 118,-40 148,-120 30,-80 45,-203 45,-369 0,-168 -17,-291 -51,-369 -35,-79 -85,-118 -151,-118 -65,0 -114,37 -145,110 -32,73 -48,193 -48,362zm674 -11c0,197 -45,352 -133,464 -89,111 -207,167 -354,167 -145,0 -259,-52 -341,-156 -83,-104 -124,-248 -124,-432 0,-192 43,-343 131,-453 87,-110 206,-165 357,-165 145,0 259,51 341,151 82,100 123,242 123,424l0 0zm851 170l54 -10 -18 433 -7 9c-121,-3 -254,-4 -397,-4 -132,0 -263,1 -393,4l-7 -151c53,-48 103,-92 152,-134 48,-43 90,-81 126,-114 39,-36 71,-69 96,-100 26,-31 46,-61 61,-90 15,-29 25,-58 32,-87 6,-28 9,-58 9,-89 0,-72 -20,-130 -61,-172 -41,-42 -92,-63 -153,-63 -63,0 -130,26 -202,78l-36 -99c116,-104 236,-156 359,-156 102,0 187,34 253,101 67,67 100,150 100,249 0,59 -10,112 -31,158 -20,45 -50,88 -91,131 -41,42 -91,86 -153,132 -61,45 -134,98 -216,158l1 7 453 -1 69 -190zm213 760c112,-110 167,-219 167,-329 0,-97 -40,-173 -121,-227 0,-61 13,-109 40,-142 26,-34 60,-51 102,-51 45,0 82,23 111,69 29,46 44,104 44,175 0,107 -25,208 -74,303 -50,95 -124,187 -222,277l-47 -75zm1066 -744c113,-18 198,-54 254,-109 57,-55 85,-129 85,-222 0,-78 -20,-142 -61,-190 -40,-48 -93,-73 -157,-73 -72,0 -149,31 -230,93l-35 -99c112,-107 243,-161 393,-161 107,0 194,32 261,95 67,63 100,146 100,250 0,183 -108,318 -324,404l0 5c124,0 220,32 288,97 67,66 101,156 101,271 0,92 -18,177 -54,252 -36,76 -88,141 -158,195 -70,54 -156,96 -259,126 -104,30 -222,46 -356,47l-8 -109c103,-8 191,-26 261,-53 71,-27 128,-61 172,-102 44,-41 76,-87 95,-140 19,-52 29,-107 29,-165 0,-99 -27,-176 -79,-232 -53,-56 -119,-84 -199,-84 -40,0 -78,5 -113,15l-6 -111zm759 -677c143,-28 274,-59 393,-94l14 10 0 133c110,-92 225,-138 345,-138l5 8c-20,130 -39,270 -57,419l-54 13c-16,-82 -32,-144 -48,-187 -15,-44 -39,-66 -72,-66 -32,0 -72,14 -119,42l0 529c0,128 1,219 2,274 1,23 9,38 24,44l133 46 3 59c-103,-3 -202,-4 -296,-4 -90,0 -179,1 -269,4l-4 -59 118 -43c15,-5 23,-18 23,-37 1,-35 1,-86 1,-152l0 -412c0,-134 -1,-232 -4,-293l-133 -46 -5 -50zm1487 64c-33,-16 -71,-24 -112,-24 -85,0 -150,39 -195,117 -44,78 -67,195 -67,352 0,136 20,245 60,326 39,82 95,123 167,123 54,0 103,-16 147,-47l0 -847zm-147 -739c151,-31 287,-63 406,-96l11 10c-4,176 -7,365 -7,568l0 671c0,108 1,219 1,334 0,42 2,76 4,101 2,26 8,45 16,59 9,13 22,23 39,28 17,4 43,7 77,8l5 55c-91,41 -168,61 -232,61 -83,0 -137,-45 -164,-134 -81,89 -171,134 -269,134 -123,0 -220,-53 -291,-161 -71,-107 -107,-242 -107,-403 0,-206 46,-365 138,-478 92,-112 221,-168 386,-168 41,0 86,5 134,13 0,-173 -1,-340 -4,-502l-136 -49 -7 -51zm5962 2096c112,-110 168,-219 168,-329 0,-97 -41,-173 -122,-227 0,-61 13,-109 40,-142 27,-34 61,-51 102,-51 45,0 82,23 111,69 29,46 44,104 44,175 0,107 -25,208 -74,303 -49,95 -123,187 -222,277l-47 -75zm1235 -880l-67 230c-13,46 -23,82 -30,110 -7,27 -11,48 -11,64 0,13 3,24 9,32 5,7 14,13 26,17l89 34 3 64c-90,-3 -163,-4 -220,-4 -59,0 -126,1 -202,4l-5 -61 100 -40c24,-8 41,-24 52,-45 12,-21 24,-52 38,-95l464 -1498 100 -20 402 1502c15,57 29,96 42,116 13,21 31,35 55,44l91 36 2 61c-83,-3 -168,-4 -253,-4 -112,0 -222,1 -329,4l-4 -61 92 -36c12,-5 21,-11 27,-18 5,-8 8,-19 8,-34 0,-16 -3,-38 -9,-64 -6,-27 -15,-62 -27,-106l-61 -232 -382 0zm201 -709c-11,42 -23,87 -36,133l-128 447 311 0 -114 -446c-12,-47 -23,-92 -33,-134l0 0zm766 168c144,-28 275,-59 394,-94l14 10 0 133c110,-92 225,-138 345,-138l5 8c-20,130 -39,270 -57,419l-54 13c-17,-82 -33,-144 -48,-187 -15,-44 -40,-66 -73,-66 -31,0 -71,14 -118,42l0 529c0,128 1,219 2,274 1,23 8,38 23,44l133 46 3 59c-103,-3 -201,-4 -295,-4 -90,0 -179,1 -269,4l-5 -59 119 -43c15,-5 22,-18 23,-37 1,-35 1,-86 1,-152l0 -412c0,-134 -1,-232 -4,-293l-133 -46 -6 -50zm813 2c153,-30 287,-62 402,-96l12 10c-4,107 -6,224 -6,352l0 660c0,164 -34,301 -101,410 -67,109 -165,234 -294,373l-53 -60c87,-155 139,-270 157,-347 17,-76 26,-183 26,-318l0 -597c0,-99 -2,-196 -4,-291l-133 -45 -6 -51zm410 -504c0,57 -14,102 -42,138 -27,35 -63,53 -108,53 -41,0 -74,-17 -101,-50 -26,-33 -39,-77 -39,-130 0,-58 13,-105 41,-138 28,-34 64,-51 109,-51 41,0 75,16 101,46 26,31 39,75 39,132l0 0zm922 1493c-92,89 -191,133 -299,133 -100,0 -176,-32 -227,-98 -51,-66 -77,-158 -77,-278l0 -261c0,-176 -1,-306 -3,-389l-134 -45 -5 -51c152,-30 286,-62 403,-96l10 10c-4,103 -6,230 -6,382l0 380c0,99 15,169 44,213 29,45 70,67 122,67 60,0 114,-18 163,-52l0 -525c0,-115 -2,-210 -4,-285l-126 -43 -5 -51c147,-30 278,-62 393,-96l12 10c-5,106 -7,235 -7,389 0,298 0,481 1,546 1,33 2,60 6,80 2,20 9,35 17,46 9,11 22,19 39,23 17,5 41,7 73,8l4 55c-89,41 -166,61 -230,61 -84,0 -138,-44 -164,-133l0 0zm480 -991c143,-28 274,-59 393,-94l14 10 0 134c105,-93 209,-139 311,-139 91,0 162,33 213,99 52,65 77,157 77,278l0 432c0,103 1,179 2,228 1,23 9,37 24,43l113 42 3 59c-89,-3 -179,-4 -269,-4 -93,0 -177,1 -251,4l-4 -59 93 -37c14,-5 22,-18 23,-37 1,-12 1,-38 1,-77l0 -517c0,-102 -15,-174 -44,-218 -30,-44 -74,-66 -133,-66 -51,0 -104,19 -159,59l0 531c0,103 1,197 2,282 1,22 8,36 22,41l97 39 1 59c-76,-3 -160,-4 -251,-4 -93,0 -184,1 -274,4l-4 -59 120 -43c14,-5 21,-17 21,-37 1,-53 1,-103 1,-152l0 -406c0,-108 -1,-208 -4,-299l-133 -46 -5 -50zm1937 942c1,24 8,38 23,43l120 43 2 64c-83,-3 -152,-4 -207,-4 -53,0 -123,1 -209,4l-5 -61 125 -46c16,-6 25,-19 25,-38 1,-67 2,-149 2,-246l0 -983c0,-83 -1,-151 -2,-206 0,-21 -8,-34 -22,-40l-125 -48 -3 -64c87,4 154,5 200,5 62,0 119,-1 174,-5l620 1028c24,41 50,85 76,131 -1,-57 -2,-111 -2,-164l0 -643c0,-79 -1,-148 -2,-206 -1,-19 -9,-31 -24,-37l-119 -43 -3 -66c86,4 155,5 208,5 54,0 123,-1 207,-5l5 64 -127 48c-14,6 -21,19 -22,40 -2,55 -3,123 -3,205l0 1371 -107 14 -733 -1218c-22,-38 -47,-81 -76,-132 2,60 2,116 2,167l0 782c0,97 1,177 2,241l0 0zm1662 -401c-98,0 -167,16 -209,49 -42,33 -62,89 -62,169 0,72 14,124 44,155 29,31 64,46 104,46 47,0 87,-15 121,-46l2 -373zm-456 -510c132,-80 260,-120 382,-120 112,0 196,34 251,100 56,66 84,161 83,285l-5 513c-1,42 0,76 2,102 3,25 8,45 17,58 9,14 23,24 40,29 18,6 44,9 77,10l6 57c-87,40 -162,59 -225,59 -84,0 -140,-43 -166,-131 -79,88 -163,131 -251,131 -86,0 -158,-28 -213,-85 -56,-57 -84,-138 -84,-241 0,-129 45,-224 135,-283 91,-61 226,-91 407,-91l1 -93c0,-88 -16,-153 -48,-195 -33,-42 -84,-63 -153,-63 -64,0 -140,19 -230,56l-26 -98zm1917 -24l-216 72c46,70 69,149 69,237 0,132 -37,238 -109,316 -72,79 -167,118 -285,118 -73,0 -138,-13 -193,-42 -25,58 -37,107 -37,145 0,21 9,36 25,43 16,7 50,11 102,11 37,0 83,0 137,-2 54,-1 103,-2 147,-2 105,0 186,26 242,77 57,52 85,130 85,235 0,154 -58,277 -173,369 -115,93 -246,139 -391,139 -120,0 -215,-23 -285,-71 -70,-47 -105,-108 -105,-183 0,-98 49,-198 146,-302 -64,-35 -95,-86 -95,-153 0,-82 46,-197 140,-345 -94,-73 -141,-182 -141,-326 0,-128 36,-232 108,-309 72,-78 170,-118 293,-118 32,0 76,6 131,15 53,12 94,17 124,17 101,0 193,-1 275,-3l6 62zm-760 1176c-30,73 -46,142 -46,204 0,65 23,115 68,152 45,37 107,55 184,55 94,0 174,-24 243,-72 68,-48 102,-114 102,-195 0,-45 -14,-81 -42,-107 -28,-27 -89,-40 -184,-40 -37,-1 -77,0 -121,3 -43,2 -83,3 -121,3 -26,0 -54,-1 -83,-3l0 0zm88 -861c0,107 10,189 30,248 21,58 55,87 104,87 50,0 84,-27 102,-82 18,-55 27,-134 27,-239 0,-101 -10,-180 -29,-239 -20,-58 -55,-87 -106,-87 -50,0 -83,26 -101,80 -18,53 -27,131 -27,232zm1273 219c-97,0 -167,16 -209,49 -41,33 -62,89 -62,169 0,72 15,124 44,155 30,31 65,46 105,46 46,0 86,-15 120,-46l2 -373zm-456 -510c133,-80 260,-120 383,-120 111,0 195,34 251,100 55,66 83,161 82,285l-4 513c-2,42 -1,76 2,102 2,25 8,45 17,58 9,14 22,24 40,29 18,6 43,9 77,10l5 57c-87,40 -161,59 -224,59 -85,0 -140,-43 -167,-131 -79,88 -162,131 -251,131 -86,0 -157,-28 -213,-85 -56,-57 -84,-138 -84,-241 0,-129 45,-224 136,-283 90,-61 225,-91 406,-91l1 -93c1,-88 -15,-153 -48,-195 -33,-42 -83,-63 -152,-63 -64,0 -141,19 -231,56l-26 -98zm931 -31c144,-28 275,-59 394,-94l14 10 0 133c110,-92 225,-138 344,-138l5 8c-20,130 -39,270 -57,419l-54 13c-16,-82 -32,-144 -47,-187 -16,-44 -40,-66 -73,-66 -32,0 -71,14 -118,42l0 529c0,128 0,219 2,274 0,23 8,38 23,44l133 46 3 59c-103,-3 -202,-4 -296,-4 -89,0 -179,1 -268,4l-5 -59 118 -43c15,-5 23,-18 24,-37 0,-35 1,-86 1,-152l0 -412c0,-134 -2,-232 -4,-293l-134 -46 -5 -50zm728 1421c112,-110 168,-220 168,-329 0,-97 -41,-173 -122,-227 0,-61 13,-109 40,-142 27,-34 61,-51 102,-51 45,0 82,23 111,69 29,46 44,104 44,175 0,107 -25,208 -74,303 -50,95 -123,187 -222,277l-47 -75zm-16087 -1128l0 408c0,97 0,177 2,239 0,19 8,32 24,39l137 52 2 61c-96,-3 -196,-4 -301,-4 -107,0 -204,1 -290,4l-5 -61 125 -46c16,-6 25,-19 25,-38 2,-67 2,-149 2,-246l0 -983c0,-42 0,-79 0,-113 -1,-34 -1,-65 -2,-93 0,-21 -8,-35 -22,-40l-125 -48 -3 -64c87,4 170,5 248,5l235 0c151,0 307,-1 470,-5l6 11 -58 410 -50 10 -60 -299 -360 0 0 682 53 0c54,0 112,-1 174,-2 17,-1 27,-12 32,-34l33 -169 62 -3c-2,119 -3,208 -3,268 0,57 1,145 3,264l-62 7 -34 -175c-5,-21 -14,-33 -29,-34 -63,-2 -122,-3 -177,-3l-52 0zm598 -968c155,-31 290,-63 406,-96l11 10c-4,113 -6,234 -6,363l0 1141c0,98 1,167 2,205 1,23 9,37 23,42l116 43 3 59c-92,-3 -183,-4 -274,-4 -93,0 -184,1 -274,4l-5 -59 119 -43c14,-5 22,-17 23,-37 1,-32 2,-86 2,-161l0 -1070c0,-108 -1,-207 -4,-297l-137 -49 -5 -51zm957 1179c0,150 17,271 51,364 33,93 87,140 162,140 69,0 120,-41 152,-123 33,-82 49,-205 49,-367 0,-152 -17,-271 -52,-359 -34,-88 -88,-131 -161,-131 -68,0 -118,39 -151,118 -34,79 -50,198 -50,358l0 0zm702 -10c0,187 -47,339 -141,456 -95,116 -217,174 -368,174 -147,0 -265,-54 -352,-164 -87,-110 -131,-254 -131,-432 0,-180 46,-328 138,-443 91,-116 215,-174 371,-174 149,0 266,53 353,160 87,107 130,248 130,423l0 0zm440 10c0,150 17,271 51,364 33,93 87,140 162,140 69,0 120,-41 152,-123 33,-82 49,-205 49,-367 0,-152 -17,-271 -51,-359 -35,-88 -88,-131 -162,-131 -68,0 -118,39 -151,118 -33,79 -50,198 -50,358l0 0zm702 -10c0,187 -47,339 -141,456 -94,116 -217,174 -368,174 -147,0 -264,-54 -352,-164 -87,-110 -131,-254 -131,-432 0,-180 46,-328 138,-443 91,-116 215,-174 372,-174 148,0 265,53 352,160 87,107 130,248 130,423l0 0zm120 -494c144,-28 275,-59 394,-94l14 10 0 133c110,-92 225,-138 345,-138l5 8c-20,130 -39,270 -57,419l-54 13c-17,-82 -33,-144 -48,-187 -15,-44 -40,-66 -73,-66 -31,0 -71,14 -118,42l0 529c0,128 1,219 2,274 1,23 8,38 23,44l133 46 3 59c-103,-3 -201,-4 -295,-4 -90,0 -179,1 -269,4l-5 -59 119 -43c15,-5 22,-18 23,-37 1,-35 1,-86 1,-152l0 -412c0,-134 -1,-232 -4,-293l-133 -46 -6 -50zm3076 4094c-115,77 -236,115 -363,115 -152,0 -275,-49 -371,-148 -96,-99 -144,-246 -144,-439 0,-184 46,-335 138,-451 92,-117 210,-175 352,-175 125,0 222,45 290,134 68,89 102,212 102,369 0,23 -1,48 -3,74l-595 0c0,166 30,285 92,358 61,73 161,109 301,109 68,0 132,-8 194,-24l7 78zm-279 -640l0 -30c0,-112 -11,-192 -33,-241 -21,-49 -54,-73 -98,-73 -53,0 -95,34 -126,101 -31,67 -50,148 -54,243l311 0zm1207 -432c37,145 88,345 153,598 13,51 26,106 40,164 14,-56 29,-112 44,-164 46,-164 90,-331 134,-501l-97 -37 -5 -58c46,3 102,4 171,4 55,0 110,-1 166,-4l4 58 -100 36c-16,7 -28,23 -37,48 -46,149 -100,328 -162,536 -63,209 -110,368 -141,477l-119 17c-34,-120 -78,-285 -134,-495 -16,-65 -31,-126 -45,-179 -16,55 -32,115 -49,179 -60,209 -106,369 -139,478l-119 17c-33,-120 -80,-284 -142,-492 -61,-208 -113,-385 -157,-532 -10,-28 -23,-47 -41,-55l-93 -35 -3 -58c81,3 167,4 257,4 86,0 168,-1 246,-4l6 58 -100 37c36,153 79,320 130,501 13,51 26,106 40,164 14,-56 29,-111 44,-164 61,-226 113,-422 155,-587l93 -11z"/>
  <path class="fil0" d="M6015 16287c-39,-21 -82,-31 -129,-31 -66,0 -122,26 -167,77 -46,51 -69,117 -69,198 0,49 8,90 23,125 15,35 35,65 60,93 24,27 53,51 85,73 32,21 66,42 100,64 38,23 76,50 115,78 39,28 73,62 104,101 30,39 55,86 74,140 19,55 29,120 29,197 0,168 -48,299 -143,394 -95,96 -221,143 -377,143 -112,0 -223,-23 -332,-70l-6 -11 50 -444 57 -13 70 379c45,27 94,41 149,41 79,0 143,-27 191,-80 48,-53 72,-125 72,-214 0,-50 -7,-93 -22,-128 -15,-35 -36,-66 -61,-93 -26,-28 -55,-52 -87,-74 -33,-21 -66,-42 -101,-64 -38,-25 -76,-50 -114,-78 -38,-27 -72,-60 -102,-98 -30,-39 -54,-85 -73,-139 -19,-54 -28,-119 -28,-196 0,-157 45,-282 136,-375 91,-93 208,-139 353,-139 92,0 196,19 314,56l5 11 -56 398 -52 11 -68 -332zm880 1064c-97,0 -167,16 -209,49 -41,33 -62,89 -62,169 0,72 15,124 44,155 30,31 65,46 105,46 46,0 86,-15 120,-46l2 -373zm-456 -510c132,-80 260,-120 382,-120 112,0 196,34 252,100 55,66 83,161 82,285l-4 513c-2,42 -1,76 1,102 3,25 9,45 18,58 8,14 22,24 40,29 17,6 43,9 77,10l5 57c-87,40 -162,59 -224,59 -85,0 -140,-43 -167,-131 -79,88 -163,131 -251,131 -86,0 -157,-28 -213,-85 -56,-57 -84,-138 -84,-241 0,-129 45,-224 135,-283 91,-61 226,-91 407,-91l1 -93c0,-88 -15,-153 -48,-195 -33,-42 -84,-63 -153,-63 -63,0 -140,19 -230,56l-26 -98zm1337 57l0 653c0,77 0,145 2,202 1,23 9,38 24,44l127 46 3 59c-100,-3 -195,-4 -286,-4 -92,0 -183,1 -273,4l-5 -59 114 -40c18,-7 27,-20 27,-40 2,-51 3,-105 3,-162l0 -709 -136 -43 -8 -66 145 -16c0,-231 39,-409 118,-537 79,-127 188,-191 327,-191 74,0 142,11 202,34 -20,116 -36,233 -49,349l-51 14 -58 -277c-9,-3 -20,-4 -33,-4 -65,0 -114,41 -145,123 -32,82 -48,233 -48,453l0 33 225 0 0 134 -225 0zm944 -24c-33,-16 -71,-24 -112,-24 -85,0 -150,39 -194,117 -45,78 -68,195 -68,352 0,136 20,245 60,326 40,82 96,123 167,123 54,0 103,-16 147,-47l0 -847zm-147 -739c152,-31 287,-63 406,-96l11 10c-4,176 -6,365 -6,568l0 671c0,108 0,219 1,334 0,42 1,76 3,101 3,26 8,45 17,59 8,13 21,23 38,28 18,4 43,7 77,8l5 54c-90,42 -168,62 -232,62 -83,0 -137,-45 -163,-134 -81,89 -171,134 -270,134 -123,0 -220,-54 -291,-161 -71,-107 -107,-242 -107,-403 0,-206 46,-365 138,-478 92,-112 221,-168 387,-168 41,0 85,4 133,13 0,-173 -1,-340 -3,-502l-137 -49 -7 -51zm1189 1216c-97,0 -167,16 -208,49 -42,33 -63,89 -63,169 0,72 15,124 45,155 29,31 64,46 104,46 46,0 86,-15 120,-46l2 -373zm-455 -510c132,-80 260,-120 382,-120 112,0 195,34 251,100 56,66 83,161 83,285l-5 513c-1,42 -1,76 2,102 3,25 8,45 17,58 9,14 22,24 40,29 18,6 43,9 77,10l6 57c-87,40 -162,59 -225,59 -84,0 -140,-43 -167,-131 -78,88 -162,131 -250,131 -87,0 -158,-28 -213,-85 -56,-57 -84,-138 -84,-241 0,-129 45,-224 135,-283 90,-61 226,-91 406,-91l1 -93c1,-88 -15,-153 -48,-195 -32,-42 -83,-63 -152,-63 -64,0 -141,19 -230,56l-26 -98zm930 -31c144,-28 275,-59 394,-94l14 10 0 133c110,-92 225,-138 345,-138l5 8c-20,130 -39,270 -57,419l-54 13c-17,-82 -33,-144 -48,-187 -15,-44 -40,-66 -73,-66 -31,0 -71,14 -118,42l0 529c0,128 1,219 2,274 1,23 8,38 23,44l133 46 3 59c-103,-3 -201,-4 -295,-4 -90,0 -179,1 -269,4l-5 -59 119 -43c15,-5 22,-18 23,-37 1,-35 1,-86 1,-152l0 -412c0,-134 -1,-232 -4,-293l-133 -46 -6 -50zm813 2c153,-30 287,-62 402,-96l12 10c-4,107 -6,224 -6,352l0 660c0,164 -34,301 -101,410 -67,109 -165,234 -294,373l-53 -61c87,-154 139,-270 157,-346 17,-76 26,-183 26,-318l0 -597c0,-99 -2,-196 -4,-291l-133 -45 -6 -51zm410 -504c0,57 -14,102 -42,138 -27,35 -63,53 -108,53 -41,0 -74,-17 -101,-50 -26,-33 -39,-77 -39,-130 0,-59 13,-105 41,-139 28,-33 64,-50 110,-50 40,0 74,16 100,46 26,31 39,75 39,132l0 0zm922 1493c-92,89 -191,133 -299,133 -100,0 -176,-32 -227,-98 -51,-66 -77,-159 -77,-278l0 -261c0,-176 -1,-306 -3,-389l-134 -45 -5 -51c152,-30 286,-62 403,-96l10 10c-4,103 -5,230 -5,382l0 380c0,98 14,169 43,213 29,45 70,67 123,67 59,0 113,-18 162,-52l0 -525c0,-115 -2,-210 -4,-285l-126 -43 -5 -51c147,-30 278,-62 393,-96l12 10c-5,106 -7,235 -7,389 0,298 0,481 1,546 1,33 2,60 6,80 3,20 9,35 17,46 9,11 22,18 39,23 17,5 41,7 73,8l5 54c-90,42 -167,62 -231,62 -84,0 -138,-44 -164,-133l0 0zm480 -991c143,-28 274,-59 393,-94l14 10 0 133c105,-92 209,-138 311,-138 91,0 162,33 213,98 52,66 77,158 77,278l0 433c0,103 1,179 2,228 1,23 9,37 24,42l113 43 3 59c-89,-3 -178,-4 -268,-4 -94,0 -178,1 -252,4l-4 -59 93 -37c14,-6 22,-18 23,-37 1,-12 1,-38 1,-77l0 -517c0,-102 -15,-174 -44,-218 -30,-44 -74,-66 -133,-66 -51,0 -104,19 -159,59l0 531c0,103 1,197 2,282 1,22 8,36 22,41l97 39 2 59c-77,-3 -161,-4 -252,-4 -93,0 -184,1 -274,4l-4 -59 120 -43c14,-5 21,-17 21,-37 1,-53 1,-103 1,-152l0 -406c0,-108 -1,-208 -4,-299l-133 -46 -5 -50zm2206 6l-216 73c46,70 69,149 69,237 0,132 -36,238 -108,316 -73,79 -168,118 -285,118 -74,0 -138,-14 -194,-42 -24,58 -36,107 -36,145 0,21 8,36 24,43 17,7 51,11 102,11 37,0 83,0 137,-2 54,-1 103,-2 148,-2 104,0 185,26 242,77 56,52 84,130 84,235 0,154 -57,277 -173,369 -115,93 -245,139 -391,139 -120,0 -215,-23 -285,-71 -70,-47 -104,-108 -104,-183 0,-98 48,-198 146,-302 -64,-35 -96,-86 -96,-153 0,-82 47,-197 141,-345 -95,-73 -142,-182 -142,-326 0,-128 36,-232 109,-310 72,-77 169,-117 292,-117 32,0 76,5 131,15 53,11 95,17 124,17 102,0 194,-1 275,-3l6 61zm-759 1177c-31,73 -46,141 -46,204 0,65 22,115 67,152 46,37 107,55 185,55 93,0 174,-24 242,-72 69,-48 103,-114 103,-195 0,-45 -14,-81 -42,-107 -28,-27 -89,-40 -184,-40 -37,-1 -78,0 -121,2 -44,3 -84,4 -121,4 -27,0 -55,-1 -83,-4l0 1zm87 -861c0,107 10,189 31,248 20,58 55,87 104,87 49,0 83,-28 101,-82 18,-55 28,-134 28,-239 0,-101 -10,-180 -30,-239 -20,-58 -55,-87 -106,-87 -49,0 -83,26 -101,80 -18,53 -27,130 -27,232l0 0zm1467 -957l235 0c151,0 308,-1 470,-5l6 10 -58 411 -50 10 -59 -299 -361 0 0 654 50 0c54,0 112,-1 175,-2 16,-1 26,-12 31,-33l34 -169 61 -4c-2,119 -3,208 -3,268 0,57 1,145 3,264l-61 6 -35 -174c-5,-22 -14,-33 -29,-34 -63,-2 -122,-3 -177,-3l-49 0 0 423c0,91 1,181 2,270l373 0 117 -325 57 -11 -23 462 -6 9c-155,-3 -305,-4 -452,-4l-246 0c-80,0 -163,1 -248,3l-5 -61 125 -46c16,-6 24,-18 26,-38 0,-33 1,-70 1,-111 0,-40 0,-85 0,-135l0 -983c0,-42 0,-79 0,-113 0,-34 -1,-65 -1,-93 -1,-21 -8,-35 -23,-40l-125 -48 -3 -64c88,4 170,5 248,5l0 0zm865 635c143,-28 274,-59 393,-94l14 10 0 133c105,-92 209,-138 311,-138 91,0 162,33 213,98 52,66 77,158 77,278l0 433c0,103 1,179 2,228 1,23 9,37 24,42l113 43 3 59c-89,-3 -179,-4 -269,-4 -93,0 -177,1 -251,4l-4 -59 93 -37c14,-6 22,-18 23,-37 1,-12 1,-38 1,-77l0 -517c0,-102 -15,-174 -44,-218 -30,-44 -74,-66 -133,-66 -51,0 -104,19 -159,59l0 531c0,103 1,197 2,282 1,22 8,36 22,41l97 39 1 59c-76,-3 -160,-4 -251,-4 -93,0 -184,1 -274,4l-4 -59 120 -43c14,-5 21,-17 21,-37 1,-53 1,-103 1,-152l0 -406c0,-108 -1,-208 -4,-299l-133 -46 -5 -50zm2034 1009c-103,77 -210,115 -320,115 -136,0 -247,-52 -335,-156 -87,-105 -131,-244 -131,-419 0,-190 48,-344 143,-461 95,-118 216,-177 364,-177 94,0 184,24 271,71 -22,115 -42,237 -59,365l-51 11 -71 -308c-17,-8 -40,-12 -68,-12 -71,0 -129,40 -175,122 -45,82 -68,192 -68,329 0,160 29,279 86,354 58,77 140,115 246,115 51,0 104,-8 160,-23l8 74zm101 -1684c155,-31 291,-63 406,-96l11 10c-4,113 -6,234 -6,363l0 1141c0,98 1,167 2,205 1,23 9,37 23,42l117 43 2 59c-91,-3 -183,-4 -274,-4 -92,0 -184,1 -274,4l-5 -59 119 -43c14,-5 22,-17 23,-37 1,-32 2,-86 2,-161l0 -1070c0,-108 -1,-207 -4,-297l-137 -49 -5 -51zm1184 1216c-97,0 -167,16 -208,49 -42,33 -63,89 -63,169 0,72 15,124 44,155 30,31 65,46 105,46 46,0 86,-15 120,-46l2 -373zm-456 -511c133,-79 260,-119 383,-119 111,0 195,34 251,100 56,66 83,161 83,285l-5 513c-1,42 -1,76 2,102 2,25 8,45 17,58 9,14 22,24 40,29 18,6 43,9 77,10l5 57c-86,40 -161,59 -224,59 -84,0 -140,-43 -167,-131 -79,88 -162,131 -250,131 -87,0 -158,-28 -214,-85 -56,-57 -84,-138 -84,-241 0,-129 45,-224 136,-284 90,-60 226,-90 406,-90l1 -93c1,-88 -15,-153 -48,-195 -32,-42 -83,-63 -152,-63 -64,0 -141,19 -230,56l-27 -99zm817 -91c81,3 167,4 257,4 86,0 168,-1 246,-4l5 58 -99 37c39,154 86,323 140,505 14,49 29,102 44,161 16,-57 31,-111 47,-161 49,-165 98,-334 146,-505l-97 -37 -5 -58c46,3 102,4 170,4 56,0 111,-1 167,-4l4 58 -100 36c-16,7 -28,23 -37,48 -48,150 -105,329 -171,539 -65,209 -114,369 -147,479l-119 17c-35,-121 -84,-286 -149,-495 -65,-208 -120,-387 -166,-534 -9,-29 -23,-47 -40,-55l-93 -35 -3 -58zm1920 1070c-115,77 -236,115 -363,115 -152,0 -276,-49 -372,-148 -96,-99 -144,-246 -144,-439 0,-184 46,-335 138,-451 93,-117 210,-175 353,-175 125,0 221,45 289,134 68,89 102,212 102,369 0,23 0,48 -2,73l-596 1c0,166 31,285 92,358 61,73 162,109 301,109 68,0 133,-8 194,-24l8 78zm-280 -640l0 -30c0,-112 -10,-192 -32,-241 -21,-49 -54,-73 -98,-73 -53,0 -95,34 -126,101 -32,67 -50,148 -55,243l311 0zm446 1051c112,-109 167,-219 167,-328 0,-97 -40,-173 -122,-228 0,-60 14,-108 41,-141 26,-34 60,-51 102,-51 44,0 82,23 111,69 29,46 43,104 43,174 0,107 -24,209 -74,304 -49,95 -123,187 -221,277l-47 -76zm1243 -478c1,24 8,38 23,43l119 43 3 64c-84,-3 -153,-4 -207,-4 -53,0 -123,1 -209,4l-5 -61 125 -46c16,-6 24,-19 25,-38 1,-67 2,-149 2,-246l0 -983c0,-83 -1,-151 -2,-206 -1,-21 -8,-35 -22,-40l-125 -48 -3 -64c87,4 154,5 200,5 61,0 119,-1 174,-5l619 1028c25,41 51,85 77,131 -2,-57 -2,-112 -2,-164l0 -643c0,-80 -1,-148 -2,-206 -1,-19 -9,-31 -24,-37l-120 -43 -2 -66c85,4 155,5 208,5 54,0 123,-1 207,-5l5 64 -127 48c-14,5 -22,19 -22,40 -2,55 -3,123 -3,205l0 1371 -107 14 -733 -1218c-22,-38 -47,-81 -76,-132 1,60 2,116 2,167l0 782c0,97 1,177 2,241l0 0zm4342 146c-80,0 -163,1 -248,4l-5 -61 125 -46c16,-6 25,-19 25,-38 1,-33 2,-70 2,-111 0,-40 0,-85 0,-135l0 -983c0,-42 0,-79 0,-113 -1,-34 -1,-65 -2,-93 0,-21 -8,-35 -22,-40l-125 -48 -3 -64c87,4 171,5 250,5 67,0 131,-2 193,-6 61,-4 125,-6 191,-6 231,0 405,65 522,197 117,131 175,326 175,585 0,304 -65,541 -194,709 -129,168 -311,253 -546,253 -65,0 -122,-2 -172,-5 -51,-3 -106,-4 -166,-4l0 0zm178 -125c30,8 59,12 87,14 29,2 58,3 87,3 135,0 238,-63 308,-189 70,-126 105,-318 105,-576 0,-251 -33,-437 -100,-559 -68,-121 -173,-182 -317,-182 -54,0 -110,3 -170,10l0 1479zm1948 46c-115,77 -236,115 -363,115 -152,0 -276,-49 -372,-148 -96,-99 -144,-246 -144,-439 0,-184 46,-335 138,-451 93,-117 210,-175 353,-175 125,0 221,45 289,134 68,89 102,212 102,369 0,23 0,48 -2,73l-596 1c0,166 31,285 92,358 61,73 162,109 301,109 68,0 133,-8 194,-24l8 78zm-280 -640l0 -30c0,-112 -10,-192 -32,-241 -21,-49 -54,-73 -98,-73 -53,0 -95,34 -126,101 -32,67 -50,148 -55,243l311 0zm387 -1044c156,-31 291,-63 407,-96l11 10c-4,113 -6,234 -6,363l0 1141c0,98 1,167 2,205 1,23 9,37 23,42l116 43 3 59c-92,-3 -183,-4 -274,-4 -93,0 -184,1 -274,4l-5 -59 119 -43c14,-5 22,-17 23,-37 1,-32 2,-86 2,-161l0 -1070c0,-108 -2,-207 -4,-297l-137 -49 -6 -51zm1352 586c90,0 162,33 213,98 52,66 78,158 78,278l0 433c0,103 0,179 2,228 0,23 8,37 24,42l113 43 2 59c-88,-3 -178,-4 -268,-4 -94,0 -177,1 -252,4l-4 -59 93 -37c15,-6 22,-18 24,-37 0,-12 1,-38 1,-77l0 -518c0,-101 -15,-173 -45,-217 -30,-44 -75,-66 -133,-66 -52,0 -105,16 -160,47l0 543c0,102 1,197 2,282 0,22 7,36 21,41l97 39 2 59c-77,-3 -161,-4 -252,-4 -93,0 -184,1 -273,4l-5 -59 120 -43c14,-5 21,-17 22,-37 0,-52 1,-103 1,-152l0 -1079c0,-108 -2,-207 -4,-297l-137 -50 -6 -50c156,-31 291,-63 407,-96l11 10c-4,113 -6,235 -6,363l0 434c105,-83 209,-125 312,-125l0 0zm911 -413c0,57 -13,102 -41,138 -28,35 -64,53 -109,53 -40,0 -74,-17 -100,-50 -27,-33 -40,-77 -40,-130 0,-59 14,-105 42,-139 28,-33 64,-50 109,-50 41,0 74,16 100,46 26,31 39,75 39,132l0 0zm-409 504c153,-30 287,-62 403,-96l10 10c-4,114 -6,235 -6,363l0 465c0,97 1,166 2,204 1,23 9,37 23,42l117 43 3 59c-92,-3 -183,-4 -274,-4 -93,0 -185,1 -275,4l-4 -59 118 -43c14,-5 22,-17 23,-37 1,-32 2,-86 2,-161l0 -397c0,-107 -1,-206 -4,-297l-133 -45 -5 -51zm1119 384l518 0 0 180 -518 0 0 -180zm1087 -328l-5 -61c161,-26 314,-53 460,-81l8 10c-7,145 -11,294 -11,446l0 303c0,55 0,104 1,147 0,44 1,82 1,116 1,24 10,39 26,45l148 50 3 59c-115,-3 -217,-4 -306,-4 -89,0 -191,1 -306,4l-3 -59 152 -50c17,-7 25,-20 25,-40 0,-34 1,-69 1,-105 1,-37 1,-76 1,-118l0 -197c0,-84 -1,-161 -1,-235 -1,-73 -2,-141 -3,-205l-191 -25zm697 0l-5 -61c160,-26 314,-53 460,-81l8 10c-7,145 -11,294 -11,446l0 303c0,55 0,104 0,147 1,44 1,82 2,116 1,24 10,39 26,45l148 50 3 59c-115,-3 -217,-4 -306,-4 -90,0 -191,1 -306,4l-3 -59 151 -50c17,-7 25,-20 25,-40 1,-34 2,-69 2,-105 0,-37 0,-76 0,-118l0 -197c0,-84 0,-161 -1,-235 0,-73 -1,-141 -2,-205l-191 -25zm1011 444c0,165 17,289 52,375 34,86 84,129 150,129 68,0 118,-40 148,-120 30,-80 45,-203 45,-369 0,-168 -17,-291 -51,-369 -35,-79 -85,-118 -151,-118 -66,0 -114,37 -145,110 -32,72 -48,193 -48,362l0 0zm674 -11c0,197 -45,352 -133,464 -89,111 -207,167 -354,167 -145,0 -259,-52 -341,-156 -83,-104 -124,-248 -124,-432 0,-192 43,-343 131,-453 87,-110 206,-165 357,-165 145,0 259,50 341,151 82,100 123,242 123,424l0 0z"/>
  <path class="fil0" d="M37181 17312c0,165 18,289 52,375 34,86 84,129 150,129 68,0 118,-40 148,-120 30,-80 45,-203 45,-369 0,-168 -17,-291 -51,-369 -34,-79 -85,-118 -151,-118 -65,0 -114,37 -145,110 -32,72 -48,193 -48,362zm674 -11c0,197 -45,352 -133,464 -89,111 -207,167 -354,167 -145,0 -259,-52 -341,-156 -83,-104 -124,-248 -124,-432 0,-192 43,-343 131,-453 87,-110 206,-165 357,-165 145,0 259,50 341,151 82,100 123,242 123,424l0 0zm851 170l55 -10 -19 433 -7 9c-121,-3 -254,-4 -397,-4 -132,0 -263,1 -393,4l-7 -151c53,-48 103,-92 152,-134 48,-43 91,-81 126,-115 39,-35 71,-68 97,-99 25,-31 45,-61 60,-90 15,-30 25,-58 32,-87 6,-28 9,-58 9,-89 0,-73 -20,-130 -61,-172 -41,-42 -92,-63 -153,-63 -63,0 -130,26 -202,78l-36 -99c116,-104 236,-156 359,-156 102,0 187,34 253,101 67,67 100,150 100,249 0,59 -10,112 -30,158 -20,45 -51,88 -92,131 -40,42 -91,86 -153,132 -61,45 -134,98 -216,158l1 6 453 0 69 -190zm251 885c340,-66 529,-301 568,-705l-1 -1c-71,107 -168,161 -290,161 -100,0 -187,-46 -260,-137 -73,-90 -109,-214 -109,-369 0,-171 45,-310 137,-418 91,-107 201,-161 331,-161 140,0 256,64 345,193 90,128 135,293 135,494 0,294 -72,535 -215,723 -143,188 -353,299 -629,332l-12 -112zm180 -1152c0,150 20,264 59,345 40,80 90,120 150,120 57,0 103,-31 136,-93 34,-62 50,-149 50,-259 0,-158 -19,-279 -58,-361 -38,-82 -92,-124 -161,-124 -57,0 -100,34 -130,100 -30,66 -46,157 -46,272zm806 1026c112,-109 167,-219 167,-328 0,-97 -40,-173 -121,-228 0,-60 13,-108 40,-141 26,-34 60,-51 102,-51 45,0 82,23 111,69 29,46 44,104 44,174 0,107 -25,209 -75,304 -49,95 -123,187 -221,277l-47 -76zm-23338 1912c35,8 70,13 105,13 82,0 144,-33 187,-99 43,-67 64,-167 64,-301 0,-130 -20,-227 -60,-290 -41,-64 -105,-96 -192,-96 -35,0 -69,3 -104,10l0 763zm0 454c0,49 0,94 0,133 0,39 1,74 1,105 1,19 9,32 25,40l137 52 2 60c-96,-2 -196,-3 -301,-3 -108,0 -205,1 -290,3l-5 -60 125 -46c16,-6 24,-19 25,-38 1,-33 1,-70 2,-111 0,-40 0,-85 0,-135l0 -984c0,-41 0,-78 0,-112 -1,-34 -1,-65 -2,-93 -1,-21 -8,-35 -22,-41l-125 -48 -3 -63c87,4 173,5 259,5 58,0 115,-1 170,-5 55,-3 105,-5 150,-5 168,0 295,39 382,116 86,77 130,191 130,342 0,179 -45,318 -135,417 -90,99 -218,149 -381,149 -45,0 -93,-5 -144,-14l0 336zm1471 -790c90,0 162,33 213,98 52,66 78,158 78,278l0 433c0,103 0,179 2,228 0,23 8,37 24,42l113 43 2 59c-88,-3 -178,-4 -268,-4 -94,0 -178,1 -252,4l-4 -59 93 -37c15,-6 22,-18 24,-37 0,-12 1,-38 1,-77l0 -518c0,-101 -15,-173 -45,-217 -30,-44 -75,-66 -134,-66 -51,0 -104,16 -159,47l0 543c0,103 1,197 2,282 0,22 7,36 21,41l97 39 2 59c-77,-3 -161,-4 -252,-4 -93,0 -184,1 -273,4l-5 -59 120 -43c14,-5 21,-17 22,-37 0,-52 1,-103 1,-152l0 -1079c0,-108 -2,-207 -4,-297l-137 -49 -6 -51c156,-31 291,-63 407,-96l11 10c-4,113 -6,235 -6,363l0 434c105,-83 209,-125 311,-125l1 0zm778 827c42,0 77,17 105,52 27,35 41,81 41,138 0,57 -14,104 -41,139 -28,37 -63,55 -105,55 -45,0 -80,-18 -108,-55 -27,-35 -41,-82 -41,-139 0,-57 14,-103 41,-138 28,-35 63,-52 108,-52zm0 -794c42,0 77,17 105,52 27,35 41,82 41,139 0,57 -14,103 -41,139 -28,36 -63,54 -105,54 -45,0 -80,-18 -108,-54 -27,-36 -41,-82 -41,-139 0,-57 14,-104 41,-139 28,-35 63,-52 108,-52zm831 1602c340,-66 530,-301 569,-705l-1 -1c-72,107 -169,161 -291,161 -100,0 -187,-46 -260,-137 -73,-91 -109,-214 -109,-369 0,-171 46,-310 137,-418 92,-107 202,-161 331,-161 141,0 256,64 346,193 89,128 134,293 134,494 0,294 -71,535 -215,723 -142,188 -352,299 -629,332l-12 -112zm181 -1152c0,149 19,264 59,345 39,80 89,120 149,120 58,0 103,-31 137,-93 33,-62 50,-149 50,-259 0,-159 -20,-279 -58,-361 -39,-82 -93,-124 -162,-124 -56,0 -100,34 -130,100 -30,66 -45,157 -45,272l0 0zm1360 -282c112,69 192,144 241,225 50,81 74,173 74,277 0,150 -45,272 -137,366 -91,95 -202,142 -333,142 -129,0 -234,-39 -316,-115 -81,-77 -122,-181 -122,-313 0,-91 23,-169 68,-235 45,-67 116,-132 212,-195 -145,-107 -219,-249 -219,-427 0,-130 40,-237 118,-319 78,-81 176,-122 294,-122 104,0 191,32 261,96 69,64 104,149 104,255 0,75 -21,141 -64,199 -43,57 -103,113 -181,166l0 0zm-236 211c-76,113 -114,233 -114,359 0,94 19,172 58,234 40,61 91,92 155,92 59,0 107,-26 145,-78 37,-52 56,-120 56,-205 0,-78 -20,-145 -60,-203 -41,-56 -120,-123 -240,-199zm160 -265c57,-104 86,-197 86,-281 0,-84 -15,-150 -46,-197 -31,-47 -72,-71 -123,-71 -42,0 -78,20 -106,59 -29,39 -43,90 -43,152 0,65 16,121 49,169 33,48 94,104 183,169l0 0zm486 0l-5 -61c161,-26 314,-53 460,-81l9 10c-8,145 -12,294 -12,446l0 303c0,55 0,104 1,147 0,44 1,82 1,116 2,24 10,39 26,45l149 50 2 59c-115,-3 -216,-4 -305,-4 -90,0 -192,1 -306,4l-4 -59 152 -50c17,-7 25,-20 25,-40 1,-34 1,-69 2,-105 0,-37 0,-76 0,-118l0 -197c0,-83 0,-161 -1,-235 -1,-73 -2,-141 -3,-205l-191 -25zm1012 444c0,164 17,289 51,375 35,86 84,129 150,129 69,0 118,-40 148,-120 30,-81 46,-203 46,-369 0,-168 -18,-291 -52,-369 -34,-79 -84,-118 -151,-118 -65,0 -113,37 -145,110 -31,72 -47,193 -47,362l0 0zm673 -11c0,197 -44,352 -133,464 -89,111 -207,167 -354,167 -145,0 -258,-52 -341,-156 -82,-104 -124,-248 -124,-432 0,-192 44,-343 131,-453 87,-110 207,-165 357,-165 146,0 259,50 341,151 82,100 123,242 123,424l0 0zm225 1095l577 -1318 -562 0 -61 251 -60 9 -16 -574 6 -10c74,2 145,3 215,4 69,1 138,1 205,1l52 0c67,0 134,0 202,-1 67,-1 130,-2 187,-4l4 188c-53,126 -104,252 -153,378 -50,126 -96,251 -139,374 -43,123 -81,243 -116,360 -36,117 -65,230 -89,338l-248 12 -4 -8zm779 -664l364 0 0 -616c-30,48 -61,97 -93,149 -32,51 -63,103 -94,155 -31,53 -62,105 -91,158 -31,53 -59,104 -86,154zm622 318c0,131 2,244 5,342 -91,11 -175,24 -251,38l-13 -9c1,-98 2,-216 2,-353l0 -164 -231 0c-78,0 -173,1 -285,4l-7 -115c51,-81 102,-165 156,-253 53,-88 107,-177 160,-267 54,-90 107,-180 159,-270 53,-90 103,-178 151,-264l160 -12c-4,184 -6,355 -6,515l0 490 204 0 4 176c-63,-3 -132,-4 -208,-4l0 146zm226 418l-7 -109c79,-3 150,-16 215,-38 64,-21 119,-51 165,-89 45,-38 80,-83 105,-135 25,-53 37,-111 37,-176 0,-106 -26,-191 -77,-254 -52,-62 -122,-94 -211,-94 -70,0 -136,9 -198,27l-6 -9 54 -839c108,3 223,5 345,5 127,0 238,-2 332,-5l6 10 -23 290 -565 0 -21 288c61,-11 124,-17 190,-17 135,0 244,45 327,135 83,90 124,206 124,349 0,91 -15,177 -46,256 -30,79 -77,149 -141,208 -64,60 -146,106 -246,141 -99,36 -219,54 -359,56l0 0zm1477 -1546c111,69 192,144 241,225 49,81 74,173 74,277 0,150 -46,272 -137,366 -91,95 -202,142 -333,142 -129,0 -234,-39 -316,-115 -81,-77 -122,-181 -122,-313 0,-91 23,-169 68,-235 45,-67 116,-132 212,-195 -146,-107 -219,-249 -219,-427 0,-130 39,-237 117,-319 79,-81 177,-122 294,-122 105,0 192,32 261,96 70,64 105,149 105,255 0,75 -22,141 -65,199 -43,57 -103,113 -181,166l1 0zm-236 211c-76,113 -115,233 -115,359 0,94 20,172 59,234 39,61 91,92 155,92 59,0 107,-26 144,-78 38,-52 56,-120 56,-205 0,-78 -20,-145 -60,-203 -40,-56 -120,-123 -239,-199zm159 -265c58,-104 87,-197 87,-281 0,-84 -16,-150 -46,-197 -31,-47 -72,-71 -123,-71 -42,0 -78,20 -106,59 -29,39 -44,90 -44,152 0,65 17,121 50,169 32,48 93,104 182,169l0 0zm1097 54c111,69 192,144 241,225 50,81 74,173 74,277 0,150 -45,272 -137,366 -91,95 -202,142 -333,142 -129,0 -234,-39 -316,-115 -81,-77 -122,-181 -122,-313 0,-91 23,-169 68,-235 45,-67 116,-132 212,-195 -146,-107 -219,-249 -219,-427 0,-130 39,-237 118,-319 78,-81 176,-122 293,-122 105,0 192,32 261,96 70,64 105,149 105,255 0,75 -22,141 -64,199 -43,57 -104,113 -181,166l0 0zm-236 211c-76,113 -115,233 -115,359 0,94 20,172 59,234 39,61 91,92 155,92 59,0 107,-26 145,-78 37,-52 56,-120 56,-205 0,-78 -21,-145 -61,-203 -40,-56 -119,-123 -239,-199zm160 -265c57,-104 86,-197 86,-281 0,-84 -16,-150 -46,-197 -31,-47 -72,-71 -123,-71 -42,0 -78,20 -106,59 -29,39 -44,90 -44,152 0,65 17,121 50,169 32,48 94,104 183,169l0 0zm801 444c0,164 17,289 51,375 35,86 85,129 150,129 69,0 118,-40 148,-120 31,-81 46,-203 46,-369 0,-168 -17,-291 -52,-369 -34,-79 -84,-118 -150,-118 -66,0 -114,37 -146,110 -31,72 -47,193 -47,362l0 0zm673 -11c0,197 -44,352 -133,464 -89,111 -207,167 -354,167 -144,0 -258,-52 -341,-156 -82,-104 -124,-248 -124,-432 0,-192 44,-343 131,-453 87,-110 207,-165 357,-165 146,0 259,50 341,151 82,100 123,242 123,424l0 0zm-23451 3013c10,44 18,88 25,132 10,-46 20,-88 31,-129l193 -739c13,-49 21,-86 27,-112 5,-26 7,-47 7,-62 0,-14 -2,-25 -8,-32 -6,-8 -15,-14 -27,-18l-89 -33 -3 -66c90,4 163,5 220,5 59,0 126,-1 202,-5l5 63 -100 39c-24,9 -41,25 -54,45 -12,21 -24,53 -35,97l-402 1485 -101 11 -236 -979c-13,-52 -25,-108 -38,-168 -15,59 -30,115 -43,167l-257 969 -101 11 -363 -1482c-15,-56 -28,-95 -42,-115 -13,-20 -32,-35 -55,-45l-91 -35 -2 -63c83,4 168,5 253,5 112,0 221,-1 328,-5l5 63 -92 35c-12,5 -21,11 -27,19 -5,7 -8,18 -8,33 0,16 2,38 7,64 5,26 12,62 23,108l173 736c10,45 18,89 25,133 10,-45 20,-88 30,-129l276 -1062 94 -11 250 1070zm1361 590c-114,77 -235,115 -363,115 -151,0 -275,-49 -371,-148 -96,-99 -144,-246 -144,-439 0,-184 46,-335 138,-451 92,-117 210,-175 353,-175 125,0 221,45 289,134 68,89 102,212 102,369 0,23 -1,48 -3,73l-595 0c0,167 31,286 92,359 61,73 162,109 301,109 68,0 132,-8 194,-24l7 78zm-279 -640l0 -30c0,-112 -11,-192 -32,-241 -21,-49 -54,-73 -98,-73 -53,0 -95,34 -127,101 -31,67 -49,148 -54,243l311 0zm780 609c41,15 82,22 123,22 84,0 148,-41 190,-124 42,-82 63,-200 63,-354 0,-139 -20,-249 -59,-326 -39,-79 -97,-118 -174,-118 -48,0 -96,14 -143,42l0 858zm5 -1739c-3,123 -5,307 -5,552l0 236c95,-77 187,-116 277,-116 118,0 211,52 280,156 68,104 103,240 103,408 0,204 -49,363 -147,477 -98,113 -234,170 -407,170 -109,0 -233,-27 -373,-80 1,-98 1,-229 1,-394l0 -731c0,-182 -1,-346 -3,-492l-137 -50 -6 -50c155,-31 290,-63 407,-96l10 10zm1338 812c-39,-12 -82,-18 -127,-18 -57,0 -103,13 -138,39 -36,26 -54,64 -54,112 0,37 8,66 23,86 16,20 42,39 81,56l149 69c89,40 154,89 195,146 41,57 61,124 61,201 0,121 -38,215 -115,282 -76,67 -177,100 -302,100 -105,0 -207,-28 -307,-85 21,-110 38,-217 51,-321l48 -9 67 268c38,18 85,26 142,26 54,0 98,-13 131,-41 34,-27 51,-65 51,-113 0,-40 -11,-74 -31,-102 -20,-27 -60,-54 -120,-82l-114 -52c-72,-33 -127,-77 -163,-131 -37,-54 -55,-120 -55,-198 0,-120 36,-212 107,-276 72,-65 170,-97 295,-97 103,0 197,20 280,61 -19,107 -35,210 -48,306l-51 10 -56 -237zm716 -553c0,56 -14,102 -41,138 -28,35 -64,53 -109,53 -41,0 -74,-17 -101,-50 -26,-34 -39,-77 -39,-130 0,-59 14,-105 42,-139 28,-33 64,-50 109,-50 40,0 74,15 100,46 26,31 39,75 39,132l0 0zm-410 504c153,-31 287,-63 403,-96l11 10c-4,114 -6,234 -6,362l0 466c0,97 1,165 2,204 1,23 9,36 23,42l116 43 3 58c-92,-2 -183,-3 -274,-3 -93,0 -184,1 -274,3l-5 -58 119 -43c14,-5 22,-17 23,-37 1,-32 2,-86 2,-161l0 -397c0,-107 -2,-206 -4,-297l-133 -45 -6 -51zm1012 86c-4,257 -6,476 -6,654 0,84 10,141 29,173 19,32 56,48 111,48 42,0 88,-4 138,-10l7 73c-99,64 -191,96 -277,96 -87,0 -154,-24 -202,-73 -47,-48 -71,-120 -71,-217 0,-172 2,-422 6,-750l-126 -43 -9 -66 156 -19 89 -290c53,-12 101,-24 144,-36l13 9c-2,99 -2,205 -2,317l261 0 0 134 -261 0zm1244 921c-115,77 -236,115 -363,115 -152,0 -276,-49 -372,-148 -96,-99 -144,-246 -144,-439 0,-184 46,-335 139,-451 92,-117 209,-175 352,-175 125,0 221,45 290,134 68,89 102,212 102,369 0,23 -1,48 -3,73l-596 0c0,167 31,286 92,359 61,73 162,109 302,109 67,0 132,-8 193,-24l8 78zm-280 -640l0 -30c0,-112 -10,-192 -32,-241 -21,-49 -54,-73 -98,-73 -53,0 -95,34 -126,101 -32,67 -50,148 -55,243l311 0zm673 369c42,0 77,17 105,52 27,35 41,81 41,138 0,57 -14,104 -41,139 -28,37 -63,55 -105,55 -44,0 -80,-18 -107,-55 -27,-35 -41,-82 -41,-139 0,-57 14,-103 41,-138 27,-35 63,-52 107,-52zm0 -794c42,0 77,17 105,52 27,35 41,82 41,139 0,57 -14,103 -41,139 -28,36 -63,54 -105,54 -44,0 -80,-18 -107,-54 -27,-36 -41,-82 -41,-139 0,-57 14,-104 41,-139 27,-35 63,-52 107,-52zm1440 -33c91,0 162,33 214,98 52,66 78,158 78,278l0 433c0,103 0,179 1,228 1,23 9,36 25,42l112 43 3 58c-89,-2 -178,-3 -268,-3 -94,0 -178,1 -252,3l-4 -58 93 -37c14,-6 22,-18 23,-37 1,-12 1,-38 1,-77l0 -518c0,-101 -15,-174 -45,-217 -29,-45 -74,-66 -133,-66 -52,0 -105,16 -159,47l0 543c0,102 0,197 2,282 0,22 7,36 21,41l97 39 2 58c-77,-2 -161,-3 -252,-3 -93,0 -184,1 -274,3l-4 -58 120 -43c14,-5 21,-17 21,-37 1,-52 1,-103 1,-152l0 -1079c0,-108 -1,-207 -3,-297l-137 -50 -6 -50c156,-31 291,-63 407,-96l10 10c-3,113 -5,235 -5,363l0 433c105,-83 209,-124 311,-124l0 0zm881 177c-3,257 -5,476 -5,654 0,84 9,141 29,173 19,32 56,48 110,48 43,0 89,-4 138,-10l8 73c-99,64 -191,96 -277,96 -87,0 -155,-24 -202,-73 -48,-48 -72,-120 -72,-217 0,-172 2,-422 6,-750l-126 -43 -8 -66 155 -19 89 -290c53,-12 101,-24 145,-36l13 9c-2,99 -3,205 -3,317l261 0 0 134 -261 0zm715 0c-4,257 -6,476 -6,654 0,84 10,141 29,173 19,32 56,48 111,48 42,0 88,-4 138,-10l7 73c-99,64 -191,96 -277,96 -87,0 -154,-24 -202,-73 -47,-48 -71,-120 -71,-217 0,-172 2,-422 6,-750l-126 -43 -9 -66 156 -19 89 -290c53,-12 101,-24 144,-36l13 9c-1,99 -2,205 -2,317l261 0 0 134 -261 0z"/>
  <path class="fil0" d="M15164 23030l-6 -50c144,-28 275,-59 394,-94l14 12 0 115c96,-81 189,-122 279,-122 116,0 209,52 278,154 69,102 103,236 103,401 0,205 -48,366 -145,483 -97,117 -224,175 -383,175 -42,0 -86,-6 -132,-17l0 260c0,82 0,138 2,171 1,26 9,41 25,46l131 46 3 58c-103,-3 -200,-4 -291,-4 -92,0 -184,1 -273,4l-5 -58 117 -44c15,-4 23,-17 24,-37 1,-60 2,-152 2,-273l0 -493c0,-360 -2,-588 -4,-687l-133 -46zm402 934c43,13 85,19 126,19 82,0 144,-42 186,-125 43,-83 64,-202 64,-357 0,-146 -20,-256 -60,-331 -40,-75 -97,-112 -172,-112 -54,0 -103,13 -144,41l0 865zm1054 -246c42,0 77,17 105,52 27,35 41,81 41,138 0,57 -14,104 -41,139 -28,37 -63,55 -105,55 -45,0 -80,-18 -108,-55 -27,-35 -41,-82 -41,-139 0,-57 14,-103 41,-138 28,-35 63,-52 108,-52zm0 -794c42,0 77,17 105,52 27,35 41,82 41,139 0,57 -14,103 -41,139 -28,36 -63,54 -105,54 -45,0 -80,-18 -108,-54 -27,-36 -41,-82 -41,-139 0,-57 14,-104 41,-139 28,-35 63,-52 108,-52zm318 1423l471 -2037 130 0 -470 2037 -131 0zm769 0l470 -2037 131 0 -471 2037 -130 0zm1531 -1431c36,146 87,345 152,599 13,51 27,106 40,164 15,-57 29,-112 44,-164 46,-164 91,-331 134,-501l-97 -37 -4 -58c45,3 102,4 170,4 55,0 111,-1 166,-4l4 58 -100 36c-16,7 -28,23 -36,48 -46,149 -100,328 -163,536 -62,209 -110,367 -141,477l-119 17c-33,-120 -78,-285 -133,-495 -17,-65 -32,-126 -45,-180 -17,56 -33,116 -50,180 -60,209 -106,368 -139,478l-119 17c-33,-120 -80,-284 -141,-492 -62,-208 -114,-385 -158,-532 -10,-28 -23,-47 -41,-55l-93 -35 -3 -58c82,3 168,4 258,4 85,0 167,-1 245,-4l6 58 -100 37c36,153 79,320 130,501 13,51 26,106 40,164 14,-57 29,-111 45,-164 61,-226 112,-422 154,-588l94 -11zm1494 0c36,146 87,345 152,599 13,51 27,106 40,164 15,-57 29,-112 44,-164 46,-164 91,-331 134,-501l-96 -37 -5 -58c45,3 102,4 170,4 56,0 111,-1 166,-4l5 58 -101 36c-15,7 -28,23 -36,48 -46,149 -100,328 -163,536 -62,209 -109,367 -141,477l-119 17c-33,-120 -77,-285 -133,-495 -17,-65 -31,-126 -45,-180 -16,56 -33,116 -49,180 -61,209 -107,368 -139,478l-120 17c-32,-120 -80,-284 -141,-492 -61,-208 -114,-385 -158,-532 -9,-28 -23,-47 -41,-55l-93 -35 -3 -58c82,3 168,4 258,4 85,0 167,-1 245,-4l6 58 -100 37c37,153 80,320 130,501 13,51 27,106 40,164 14,-57 29,-111 45,-164 61,-226 112,-422 155,-588l93 -11zm1494 0c36,146 87,345 153,599 13,51 26,106 40,164 14,-57 29,-112 43,-164 46,-164 91,-331 134,-501l-96 -37 -5 -58c45,3 102,4 170,4 56,0 111,-1 166,-4l5 58 -101 36c-15,7 -27,23 -36,48 -46,149 -100,328 -162,536 -63,209 -110,367 -142,477l-119 17c-33,-120 -77,-285 -133,-495 -16,-65 -31,-126 -45,-180 -16,56 -32,116 -49,180 -61,209 -107,368 -139,478l-119 17c-33,-120 -81,-284 -142,-492 -61,-208 -114,-385 -157,-532 -10,-28 -24,-47 -41,-55l-94 -35 -2 -58c81,3 167,4 257,4 85,0 167,-1 246,-4l5 58 -99 37c36,153 79,320 129,501 13,51 27,106 40,164 14,-57 29,-111 45,-164 61,-226 112,-422 155,-588l93 -11zm692 802c42,0 77,17 105,52 27,35 41,81 41,138 0,57 -14,104 -41,139 -28,37 -63,55 -105,55 -44,0 -80,-18 -107,-55 -28,-35 -41,-82 -41,-139 0,-57 13,-103 41,-138 27,-35 63,-52 107,-52zm859 -198c-98,0 -167,17 -209,50 -42,33 -62,89 -62,169 0,72 14,124 44,155 30,30 65,46 105,46 46,0 86,-16 120,-46l2 -374zm-456 -510c132,-79 260,-119 382,-119 112,0 196,33 251,100 56,66 84,161 83,285l-5 513c-1,42 0,76 2,102 3,25 9,44 17,58 9,14 23,23 40,29 18,6 44,9 77,10l6 57c-87,40 -162,59 -225,59 -84,0 -140,-43 -166,-132 -79,89 -163,132 -251,132 -86,0 -158,-28 -213,-85 -56,-57 -84,-138 -84,-241 0,-129 45,-224 135,-284 91,-60 226,-90 407,-90l1 -93c0,-88 -16,-154 -48,-195 -33,-42 -84,-63 -153,-63 -64,0 -140,18 -230,56l-26 -99zm1310 58c-4,257 -6,476 -6,654 0,84 10,141 29,173 19,32 56,48 111,48 42,0 88,-4 138,-10l7 73c-99,64 -191,96 -277,96 -87,0 -154,-24 -202,-73 -47,-48 -71,-120 -71,-217 0,-172 2,-422 6,-750l-126 -43 -9 -66 156 -19 89 -290c53,-12 101,-24 144,-36l13 9c-2,99 -2,205 -2,317l261 0 0 134 -261 0zm1078 -177c91,0 162,33 213,98 52,66 78,158 78,278l0 433c0,103 1,179 2,228 1,23 9,36 24,42l113 43 3 58c-89,-2 -179,-3 -269,-3 -93,0 -177,1 -252,3l-4 -58 94 -37c14,-6 22,-18 23,-37 1,-12 1,-38 1,-77l0 -518c0,-101 -15,-174 -45,-217 -30,-45 -74,-66 -133,-66 -52,0 -105,16 -160,47l0 543c0,102 1,197 2,282 1,22 8,36 21,41l97 39 2 58c-77,-2 -161,-3 -252,-3 -92,0 -183,1 -273,3l-5 -58 121 -43c13,-5 20,-17 21,-37 1,-52 1,-103 1,-152l0 -1079c0,-108 -1,-207 -4,-297l-137 -50 -5 -50c155,-31 291,-63 406,-96l11 10c-4,113 -6,235 -6,363l0 433c105,-83 209,-124 312,-124l0 0zm2075 809c0,103 1,179 2,228 1,23 9,36 24,42l113 43 3 58c-89,-2 -178,-3 -269,-3 -93,0 -175,1 -246,3l-5 -58 89 -37c14,-6 22,-18 23,-37 1,-12 1,-38 1,-77l0 -518c0,-101 -14,-174 -42,-217 -28,-45 -70,-66 -127,-66 -50,0 -104,24 -161,72 9,40 13,85 13,134l0 433c0,103 1,181 2,233 1,22 8,36 21,41l94 39 2 58c-74,-2 -156,-3 -246,-3 -93,0 -175,1 -246,3l-4 -58 88 -37c14,-6 22,-18 23,-37 1,-12 1,-38 1,-77l0 -518c0,-101 -14,-174 -42,-217 -29,-45 -70,-67 -126,-67 -48,0 -98,20 -151,60l0 531c0,102 1,197 2,282 1,22 8,36 22,41l93 39 2 58c-75,-2 -157,-3 -248,-3 -93,0 -184,1 -274,3l-4 -58 120 -43c14,-5 21,-17 21,-37 1,-53 1,-103 1,-152l0 -406c0,-108 -1,-208 -4,-299l-133 -46 -5 -50c143,-28 274,-59 393,-94l13 10 0 133c103,-92 203,-138 302,-138 113,0 195,55 245,163 116,-108 228,-163 338,-163 88,0 157,33 207,98 50,66 75,158 75,278l0 433zm760 -180c-98,0 -167,17 -209,50 -42,33 -62,89 -62,169 0,72 14,124 44,155 29,30 64,46 104,46 47,0 87,-16 121,-46l2 -374zm-456 -510c132,-79 260,-119 382,-119 112,0 196,33 251,100 56,66 84,161 83,285l-5 513c-1,42 0,76 2,102 3,25 8,44 17,58 9,14 23,23 40,29 18,6 44,9 77,10l6 57c-87,40 -162,59 -225,59 -84,0 -140,-43 -166,-132 -79,89 -163,132 -251,132 -87,0 -158,-28 -213,-85 -56,-57 -84,-138 -84,-241 0,-129 45,-224 135,-284 90,-60 226,-90 407,-90l0 -93c1,-88 -15,-154 -48,-195 -32,-42 -83,-63 -152,-63 -64,0 -140,18 -230,56l-26 -99zm1703 -94c37,146 88,345 153,599 13,51 26,106 40,164 14,-57 29,-112 44,-164 46,-164 91,-331 134,-501l-97 -37 -5 -58c46,3 102,4 171,4 55,0 110,-1 166,-4l4 58 -100 36c-16,7 -28,23 -37,48 -46,149 -100,328 -162,536 -63,209 -110,367 -141,477l-119 17c-34,-120 -78,-285 -134,-495 -16,-65 -31,-126 -45,-180 -16,56 -32,116 -49,180 -60,209 -106,368 -139,478l-119 17c-33,-120 -80,-284 -142,-492 -61,-208 -113,-385 -157,-532 -10,-28 -23,-47 -41,-55l-93 -35 -3 -58c81,3 167,4 257,4 86,0 168,-1 246,-4l6 58 -100 37c36,153 79,320 130,501 13,51 26,106 40,164 14,-57 29,-111 44,-164 61,-226 113,-422 155,-588l93 -11zm1508 1073c-114,77 -235,115 -363,115 -151,0 -275,-49 -371,-148 -96,-99 -144,-246 -144,-439 0,-184 46,-335 138,-451 92,-117 210,-175 353,-175 125,0 221,45 289,134 68,89 102,212 102,369 0,23 -1,48 -3,73l-595 0c0,167 31,286 92,359 61,73 162,109 301,109 68,0 132,-8 194,-24l7 78zm-279 -640l0 -30c0,-112 -11,-192 -32,-241 -21,-49 -54,-73 -98,-73 -53,0 -95,34 -127,101 -31,67 -49,148 -54,243l311 0zm387 -1044c156,-31 291,-63 407,-96l10 10c-3,113 -5,234 -5,363l0 1141c0,98 0,166 2,205 1,23 9,36 23,42l116 43 3 58c-92,-2 -183,-3 -274,-3 -93,0 -184,1 -274,3l-5 -58 118 -43c15,-5 22,-17 24,-37 1,-32 1,-86 1,-161l0 -1070c0,-108 -1,-207 -3,-297l-137 -50 -6 -50zm628 0c156,-31 291,-63 407,-96l10 10c-3,113 -5,234 -5,363l0 1141c0,98 0,166 2,205 1,23 9,36 23,42l116 43 3 58c-92,-2 -183,-3 -274,-3 -93,0 -184,1 -274,3l-5 -58 118 -43c15,-5 22,-17 24,-37 1,-32 2,-86 2,-161l0 -1070c0,-108 -2,-207 -4,-297l-137 -50 -6 -50zm638 675c143,-28 275,-59 393,-94l14 10 0 133c105,-92 209,-138 311,-138 91,0 162,33 213,98 52,66 77,158 77,278l0 433c0,103 1,179 2,228 1,23 9,36 25,42l112 43 3 58c-89,-2 -178,-3 -268,-3 -94,0 -178,1 -252,3l-4 -58 93 -37c14,-6 22,-18 23,-37 1,-12 1,-38 1,-77l0 -518c0,-101 -15,-174 -44,-217 -30,-45 -74,-66 -133,-66 -51,0 -104,19 -159,59l0 531c0,102 1,197 2,282 1,22 8,36 22,41l97 39 2 58c-77,-2 -161,-3 -252,-3 -93,0 -184,1 -274,3l-4 -58 120 -43c14,-5 21,-17 21,-37 1,-53 1,-103 1,-152l0 -406c0,-108 -1,-208 -4,-299l-133 -46 -5 -50zm2129 1009c-115,77 -236,115 -363,115 -152,0 -276,-49 -372,-148 -96,-99 -144,-246 -144,-439 0,-184 46,-335 138,-451 93,-117 210,-175 353,-175 125,0 221,45 289,134 69,89 103,212 103,369 0,23 -1,48 -3,73l-596 0c0,167 31,286 92,359 61,73 162,109 301,109 68,0 133,-8 194,-24l8 78zm-280 -640l0 -30c0,-112 -10,-192 -32,-241 -21,-49 -54,-73 -98,-73 -53,0 -95,34 -126,101 -32,67 -50,148 -55,243l311 0zm962 -318c-40,-12 -82,-18 -127,-18 -57,0 -103,13 -139,39 -36,26 -53,64 -53,112 0,37 7,66 23,86 15,20 42,39 80,56l149 69c89,40 154,89 195,146 41,57 62,124 62,201 0,121 -39,215 -115,282 -77,67 -178,100 -303,100 -104,0 -206,-28 -307,-85 21,-110 38,-217 52,-321l48 -9 67 268c37,18 85,26 142,26 54,0 98,-13 131,-41 33,-27 50,-65 50,-113 0,-40 -10,-74 -30,-102 -20,-27 -60,-54 -120,-82l-114 -52c-73,-33 -127,-77 -163,-131 -37,-54 -55,-120 -55,-198 0,-120 35,-212 107,-276 71,-65 169,-97 295,-97 103,0 196,20 280,61 -19,107 -35,210 -48,306l-51 10 -56 -237zm871 0c-40,-12 -82,-18 -127,-18 -57,0 -103,13 -139,39 -36,26 -54,64 -54,112 0,37 8,66 24,86 15,20 42,39 80,56l149 69c89,40 154,89 195,146 41,57 62,124 62,201 0,121 -39,215 -115,282 -77,67 -178,100 -303,100 -104,0 -206,-28 -307,-85 21,-110 38,-217 52,-321l48 -9 66 268c38,18 86,26 143,26 54,0 98,-13 131,-41 33,-27 50,-65 50,-113 0,-40 -10,-74 -30,-102 -20,-27 -60,-54 -121,-82l-113 -52c-73,-33 -127,-77 -164,-131 -36,-54 -55,-120 -55,-198 0,-120 36,-212 108,-276 71,-65 169,-97 295,-97 103,0 196,20 280,61 -19,107 -35,210 -48,306l-51 10 -56 -237zm511 687c42,0 77,17 105,52 27,35 41,81 41,138 0,57 -14,104 -41,139 -28,37 -63,55 -105,55 -44,0 -80,-18 -107,-55 -27,-35 -41,-82 -41,-139 0,-57 14,-103 41,-138 27,-35 63,-52 107,-52zm1125 270c-103,78 -209,116 -319,116 -136,0 -248,-52 -335,-156 -87,-105 -131,-244 -131,-419 0,-190 48,-344 143,-461 95,-118 216,-177 364,-177 94,0 184,24 271,71 -22,115 -42,237 -59,365l-51 11 -72 -308c-16,-8 -39,-12 -68,-12 -71,0 -129,40 -174,122 -45,82 -68,192 -68,329 0,160 29,279 86,354 58,77 140,114 246,114 51,0 104,-7 160,-22l7 73zm393 -505c0,150 17,272 50,365 34,93 88,140 162,140 69,0 121,-41 153,-123 33,-83 49,-205 49,-367 0,-152 -17,-272 -52,-359 -34,-88 -88,-132 -161,-132 -68,0 -119,40 -152,119 -33,79 -49,198 -49,357l0 0zm702 -9c0,187 -47,339 -141,456 -95,116 -218,174 -369,174 -146,0 -264,-54 -351,-164 -88,-110 -131,-254 -131,-432 0,-180 46,-328 137,-443 92,-116 216,-174 372,-174 148,0 266,53 353,160 87,106 130,247 130,423l0 0zm1693 226c0,103 1,179 2,228 1,23 9,36 24,42l113 43 3 58c-89,-2 -178,-3 -268,-3 -94,0 -176,1 -247,3l-4 -58 88 -37c14,-6 22,-18 23,-37 1,-12 1,-38 1,-77l0 -518c0,-101 -14,-174 -42,-217 -28,-45 -70,-66 -126,-66 -51,0 -105,24 -162,72 9,40 13,85 13,134l0 433c0,103 1,181 2,233 1,22 8,36 22,41l93 39 2 58c-73,-2 -155,-3 -245,-3 -94,0 -176,1 -247,3l-4 -58 88 -37c14,-6 22,-18 23,-37 1,-12 1,-38 1,-77l0 -518c0,-101 -14,-174 -42,-217 -28,-45 -70,-67 -126,-67 -48,0 -98,20 -150,60l0 531c0,102 0,197 2,282 0,22 7,36 21,41l93 39 2 58c-74,-2 -157,-3 -248,-3 -93,0 -184,1 -274,3l-4 -58 120 -43c14,-5 21,-17 22,-37 0,-53 0,-103 0,-152l0 -406c0,-108 -1,-208 -3,-299l-134 -46 -5 -50c143,-28 274,-59 393,-94l14 10 0 133c102,-92 202,-138 301,-138 113,0 195,55 245,163 116,-108 228,-163 338,-163 88,0 157,33 207,98 50,66 75,158 75,278l0 433z"/>
  <g>
   <path class="fil1" d="M0 11278l45202 0 -45202 0zm0 0l0 0z"/>
   <path id="1" class="fil2 str0" d="M0 11278l45202 0m-45202 0l0 0z"/>
  </g>
 </g>
</svg>
